<svg id="Layer_1" data-name="Layer 1" xmlns="http://www.w3.org/2000/svg" xmlns:xlink="http://www.w3.org/1999/xlink" width="1760" height="1080" viewBox="0 0 1760 1080"><defs><style>.cls-1{fill:#a56200;}.cls-2{fill:#844d03;}.cls-16,.cls-3{fill:#fff;}.cls-4{fill:#623f23;}.cls-5{fill:#3e2715;}.cls-6{fill:#e5e5e7;}.cls-7{fill:#737373;}.cls-8{fill:#5f6769;}.cls-9{fill:#747474;}.cls-10{fill:#f9f9f9;}.cls-11{fill:#c0bdc4;}.cls-12{fill:#69696c;}.cls-13{fill:#515151;}.cls-14{fill:#043254;}.cls-15{stroke:#000;}.cls-15,.cls-16{stroke-miterlimit:10;}.cls-16{stroke:#fff;}.cls-17{fill:#595a5b;}.cls-18{fill:#d73c3a;}.cls-19{fill:#d65a2c;}.cls-20{fill:#d2a06b;}.cls-21{fill:#2b2a28;opacity:0.59;}.cls-22{fill:#01afda;}.cls-23{fill:#e67a16;}.cls-24{fill:#edc214;}.cls-25{fill:#ebca49;}.cls-26{fill:#ecd68d;}.cls-27{fill:#e99922;}.cls-28{fill:#ecc110;}.cls-29{fill:#e3e5cd;}.cls-30{fill:#01b3e1;}.cls-31{fill:#e1fdff;}</style></defs><polygon class="cls-1" points="-3.18 0 -3.18 297.34 -3.18 1082 1760 1082 1760 0 -3.18 0"/><path class="cls-2" d="M382.82,339.54c55.34-17.34-386-.36-386-.36v12.16S357.87,347.35,382.82,339.54Z"/><path class="cls-2" d="M363.81,671.91c52.62-26-367-.53-367-.53v18.26S340.09,683.64,363.81,671.91Z"/><path class="cls-2" d="M471.44,381.7c68.05-25.47-474.62-.52-474.62-.52v17.87S440.77,393.18,471.44,381.7Z"/><path class="cls-2" d="M363.81,636.76c52.62-13.26-367-.27-367-.27v9.3S340.09,642.74,363.81,636.76Z"/><path class="cls-2" d="M416.19,594.86c32.43-16.16-226.19-.32-226.19-.32v11.33S401.57,602.15,416.19,594.86Z"/><path class="cls-2" d="M1230.53,969l45.15,10s-101.22,7-150.21,0,86.47,18.15,150.21,14.57l69.06,11.43s108.89-12,150.06,17c0,0,30.54-3,160.68-13s-102.83-13.5-102.83-13.5-77.77,10.5-108.32-17.5c0,0-58.43,9-94.28,3S1230.53,969,1230.53,969Z"/><path class="cls-2" d="M871.74,494.78l44.64,16.11s-100.07,11.28-148.5,0,85.48,29.23,148.5,23.48l68.28,18.4s107.65-19.33,148.35,27.39c0,0,30.2-4.84,158.87-20.95s-101.67-21.74-101.67-21.74-76.89,16.91-107.09-28.19c0,0-57.76,14.5-93.21,4.83S871.74,494.78,871.74,494.78Z"/><path class="cls-2" d="M251.19,795.43l30.28,8s-67.89,5.58-100.74,0,58,14.46,100.74,11.61l46.31,9.1s73-9.56,100.64,13.54c0,0,20.48-2.39,107.76-10.35s-69-10.76-69-10.76-52.16,8.37-72.64-13.93c0,0-39.19,7.17-63.24,2.39S251.19,795.43,251.19,795.43Z"/><path class="cls-2" d="M200.37,177.51,249,190.58s-109,9.16-161.76,0S180.35,214.32,249,209.64l74.36,14.94S440.62,208.89,485,246.81c0,0,32.89-3.92,173-17s-110.73-17.65-110.73-17.65-83.75,13.73-116.64-22.88c0,0-62.93,11.77-101.54,3.92S200.37,177.51,200.37,177.51Z"/><circle class="cls-3" cx="1517.85" cy="271.08" r="84.28"/><circle class="cls-4" cx="1518.35" cy="271.75" r="70.72"/><path class="cls-5" d="M1544,324.13s29-17.54,21-29.5,6.52-31,6.52-31-21.67-23.28-14.62-30.52-48.23-16.32-48.23-16.32-32.19,6.25-29.31,19.9-18,33.55-18,33.55,14.5,16.51,8.27,26.45,29.68,28.3,29.68,28.3S1535.09,319.25,1544,324.13Z"/><circle class="cls-5" cx="1465.66" cy="244.6" r="2.95"/><circle class="cls-5" cx="1568.5" cy="241.38" r="4.13"/><circle class="cls-5" cx="1460.35" cy="286.11" r="4.71"/><ellipse class="cls-5" cx="1521.98" cy="332.82" rx="5.62" ry="5.61" transform="translate(1099.46 1832.37) rotate(-86.6)"/><circle class="cls-5" cx="1577.04" cy="283.04" r="2.87"/><circle class="cls-5" cx="1533.65" cy="214.4" r="2.36"/><circle class="cls-5" cx="1520.48" cy="210.74" r="4.13"/><rect class="cls-3" x="1575.38" y="208.93" width="89.58" height="16.5" rx="5.9" transform="translate(3188.99 -242.03) rotate(156.05)"/><path class="cls-2" d="M1077.13,619.5c84.68-12.82-590.59-.26-590.59-.26v9S1039,625.28,1077.13,619.5Z"/><rect class="cls-6" x="117.89" y="231.05" width="331.81" height="207.18" rx="13.35" transform="translate(-76.19 83.78) rotate(-14.83)"/><polygon class="cls-7" points="124.86 299.79 148.87 293.43 153.56 313.01 130.01 319.25 124.86 299.79"/><polygon class="cls-7" points="150.46 293.01 174.47 286.66 179.16 306.23 155.61 312.47 150.46 293.01"/><polygon class="cls-7" points="201.66 279.46 225.67 273.1 230.36 292.68 206.81 298.92 201.66 279.46"/><polygon class="cls-7" points="176.06 286.24 200.07 279.88 204.76 299.46 181.21 305.69 176.06 286.24"/><polygon class="cls-7" points="227.25 272.68 251.27 266.33 255.96 285.9 232.41 292.14 227.25 272.68"/><polygon class="cls-7" points="252.85 265.91 276.87 259.55 281.55 279.13 258 285.36 252.85 265.91"/><polygon class="cls-7" points="278.45 259.13 302.46 252.77 307.15 272.35 283.6 278.58 278.45 259.13"/><polygon class="cls-7" points="329.65 245.57 353.66 239.22 358.35 258.8 334.8 265.03 329.65 245.57"/><polygon class="cls-7" points="304.05 252.35 328.06 245.99 332.75 265.57 309.2 271.81 304.05 252.35"/><polygon class="cls-7" points="355.25 238.8 379.26 232.44 383.95 252.02 360.4 258.25 355.25 238.8"/><polygon class="cls-7" points="380.85 232.02 404.86 225.66 409.55 245.24 386 251.47 380.85 232.02"/><rect class="cls-7" x="377.22" y="251.57" width="35.95" height="19.4" transform="translate(-53.7 109.84) rotate(-14.83)"/><polygon class="cls-7" points="348.65 263.55 372.67 257.2 377.35 276.77 353.8 283.01 348.65 263.55"/><polygon class="cls-7" points="322.03 270.6 346.04 264.24 350.73 283.82 327.18 290.06 322.03 270.6"/><polygon class="cls-7" points="296.43 277.38 320.44 271.02 325.13 290.6 301.58 296.83 296.43 277.38"/><polygon class="cls-7" points="270.83 284.16 294.85 277.8 299.53 297.38 275.98 303.61 270.83 284.16"/><polygon class="cls-7" points="245.24 290.93 269.25 284.58 273.94 304.15 250.38 310.39 245.24 290.93"/><polygon class="cls-7" points="219.64 297.71 243.65 291.35 248.34 310.93 224.79 317.17 219.64 297.71"/><polygon class="cls-7" points="194.04 304.49 218.05 298.13 222.74 317.71 199.19 323.94 194.04 304.49"/><polygon class="cls-7" points="136.25 342.8 160.26 336.44 164.95 356.02 141.4 362.25 136.25 342.8"/><rect class="cls-7" x="132.01" y="316.01" width="35.95" height="19.4" transform="translate(-78.36 49.23) rotate(-14.83)"/><polygon class="cls-7" points="167.41 311.54 191.43 305.18 196.12 324.75 172.56 330.99 167.41 311.54"/><polygon class="cls-7" points="187.44 329.24 211.46 322.89 216.14 342.46 192.59 348.7 187.44 329.24"/><polygon class="cls-7" points="213.04 322.47 237.06 316.11 241.74 335.69 218.19 341.92 213.04 322.47"/><polygon class="cls-7" points="238.64 315.69 262.65 309.33 267.34 328.91 243.79 335.14 238.64 315.69"/><polygon class="cls-7" points="264.24 308.91 288.25 302.55 292.94 322.13 269.39 328.37 264.24 308.91"/><polygon class="cls-7" points="289.84 302.13 313.85 295.78 318.54 315.36 294.99 321.59 289.84 302.13"/><polygon class="cls-7" points="316.46 295.09 340.47 288.73 345.16 308.31 321.61 314.54 316.46 295.09"/><polygon class="cls-7" points="343.08 288.04 367.1 281.68 371.78 301.26 348.23 307.49 343.08 288.04"/><path class="cls-8" d="M42.14,146.38,403,50.85a2.26,2.26,0,0,1,2.84,2l9.83,139.53a2.26,2.26,0,0,1-1.69,2.35L102.87,277.13a2.28,2.28,0,0,1-2.64-1.23L40.67,149.54A2.26,2.26,0,0,1,42.14,146.38Z"/><path class="cls-3" d="M55.06,157.76l48.69,105.46a3.16,3.16,0,0,0,3.68,1.74l299.33-79.25a3.15,3.15,0,0,0,2.34-3.37L397.62,67a3.18,3.18,0,0,0-4-2.75L57.13,153.37A3.16,3.16,0,0,0,55.06,157.76Z"/><rect class="cls-7" x="370.44" y="274.69" width="48.75" height="20.13" transform="matrix(0.97, -0.26, 0.26, 0.97, -59.73, 110.53)"/><polygon class="cls-7" points="161.84 336.02 185.86 329.66 190.55 349.24 167 355.48 161.84 336.02"/><rect class="cls-7" x="387.35" y="294.69" width="37.41" height="18.22" transform="matrix(0.97, -0.26, 0.26, 0.97, -64.23, 114.04)"/><rect class="cls-7" x="143.56" y="358.76" width="37.41" height="18.22" transform="translate(-88.74 53.78) rotate(-14.83)"/><polygon class="cls-7" points="180.85 354 204.86 347.64 209.01 365.17 185.46 371.41 180.85 354"/><polygon class="cls-7" points="206.45 347.22 230.46 340.86 234.61 358.39 211.06 364.63 206.45 347.22"/><polygon class="cls-7" points="232.04 340.44 256.06 334.09 260.2 351.62 236.65 357.85 232.04 340.44"/><polygon class="cls-7" points="257.64 333.67 281.66 327.31 285.8 344.84 262.25 351.07 257.64 333.67"/><polygon class="cls-7" points="283.24 326.89 307.26 320.53 311.4 338.06 287.85 344.3 283.24 326.89"/><polygon class="cls-7" points="308.84 320.11 332.86 313.76 337 331.29 313.45 337.52 308.84 320.11"/><polygon class="cls-7" points="334.44 313.34 358.45 306.98 362.6 324.51 339.05 330.74 334.44 313.34"/><polygon class="cls-7" points="360.04 306.56 384.05 300.2 388.2 317.73 364.65 323.97 360.04 306.56"/><polygon class="cls-9" points="228.49 380.83 223.78 363.02 323.2 337.11 327.82 354.54 228.49 380.83"/><polygon class="cls-7" points="147.09 383.75 171.1 377.4 175.25 394.93 151.7 401.16 147.09 383.75"/><polygon class="cls-7" points="172.69 376.98 196.7 370.62 200.85 388.15 177.3 394.38 172.69 376.98"/><polygon class="cls-7" points="198.29 370.2 222.3 363.84 226.44 381.37 202.9 387.61 198.29 370.2"/><polygon class="cls-7" points="350.85 329.81 374.87 323.45 379.01 340.98 355.46 347.22 350.85 329.81"/><polygon class="cls-7" points="325.25 336.59 349.27 330.23 353.41 347.76 329.86 353.99 325.25 336.59"/><polygon class="cls-7" points="403.07 315.98 427.09 309.63 431.23 327.16 407.68 333.39 403.07 315.98"/><polygon class="cls-7" points="376.45 323.03 400.47 316.68 404.61 334.2 381.06 340.44 376.45 323.03"/><rect class="cls-10" x="255.41" y="370.27" width="99.25" height="54.27" rx="1.82" transform="translate(-91.55 91.3) rotate(-14.83)"/><rect class="cls-11" x="262.14" y="415.19" width="47.41" height="13.74" transform="translate(-98.5 87.21) rotate(-14.83)"/><rect class="cls-11" x="309.9" y="402.42" width="47.41" height="13.74" transform="matrix(0.97, -0.26, 0.26, 0.97, -93.64, 99.01)"/><rect class="cls-6" x="569.69" y="391.63" width="744.01" height="464.56" rx="29.94"/><polygon class="cls-7" points="617.19 457.18 672.89 457.18 671.82 502.3 617.19 502.3 617.19 457.18"/><polygon class="cls-7" points="676.57 457.18 732.27 457.18 731.2 502.3 676.57 502.3 676.57 457.18"/><polygon class="cls-7" points="795.33 457.18 851.02 457.18 849.95 502.3 795.33 502.3 795.33 457.18"/><polygon class="cls-7" points="735.95 457.18 791.65 457.18 790.58 502.3 735.95 502.3 735.95 457.18"/><polygon class="cls-7" points="854.7 457.18 910.4 457.18 909.33 502.3 854.7 502.3 854.7 457.18"/><polygon class="cls-7" points="914.08 457.18 969.78 457.18 968.71 502.3 914.08 502.3 914.08 457.18"/><polygon class="cls-7" points="973.46 457.18 1029.16 457.18 1028.08 502.3 973.46 502.3 973.46 457.18"/><polygon class="cls-7" points="1092.21 457.18 1147.91 457.18 1146.84 502.3 1092.21 502.3 1092.21 457.18"/><polygon class="cls-7" points="1032.83 457.18 1088.53 457.18 1087.46 502.3 1032.83 502.3 1032.83 457.18"/><polygon class="cls-7" points="1151.59 457.18 1207.29 457.18 1206.21 502.3 1151.59 502.3 1151.59 457.18"/><polygon class="cls-7" points="1210.96 457.18 1266.66 457.18 1265.59 502.3 1210.96 502.3 1210.96 457.18"/><rect class="cls-7" x="1184.97" y="507.05" width="80.62" height="43.49"/><polygon class="cls-7" points="1123.09 507.05 1178.79 507.05 1177.71 552.18 1123.09 552.18 1123.09 507.05"/><polygon class="cls-7" points="1061.34 507.05 1117.03 507.05 1115.96 552.18 1061.34 552.18 1061.34 507.05"/><polygon class="cls-7" points="1001.96 507.05 1057.66 507.05 1056.58 552.18 1001.96 552.18 1001.96 507.05"/><polygon class="cls-7" points="942.58 507.05 998.28 507.05 997.21 552.18 942.58 552.18 942.58 507.05"/><polygon class="cls-7" points="883.2 507.05 938.9 507.05 937.83 552.18 883.2 552.18 883.2 507.05"/><polygon class="cls-7" points="823.83 507.05 879.53 507.05 878.45 552.18 823.83 552.18 823.83 507.05"/><polygon class="cls-7" points="764.45 507.05 820.15 507.05 819.08 552.18 764.45 552.18 764.45 507.05"/><polygon class="cls-7" points="617.19 556.93 672.89 556.93 671.82 602.05 617.19 602.05 617.19 556.93"/><rect class="cls-7" x="616.47" y="506.03" width="80.62" height="43.49"/><polygon class="cls-7" points="702.7 507.05 758.4 507.05 757.32 552.18 702.7 552.18 702.7 507.05"/><polygon class="cls-7" points="735.95 556.93 791.65 556.93 790.58 602.05 735.95 602.05 735.95 556.93"/><polygon class="cls-7" points="795.33 556.93 851.02 556.93 849.95 602.05 795.33 602.05 795.33 556.93"/><polygon class="cls-7" points="854.7 556.93 910.4 556.93 909.33 602.05 854.7 602.05 854.7 556.93"/><polygon class="cls-7" points="914.08 556.93 969.78 556.93 968.71 602.05 914.08 602.05 914.08 556.93"/><polygon class="cls-7" points="973.46 556.93 1029.16 556.93 1028.08 602.05 973.46 602.05 973.46 556.93"/><polygon class="cls-7" points="1035.21 556.93 1090.91 556.93 1089.84 602.05 1035.21 602.05 1035.21 556.93"/><polygon class="cls-7" points="1096.96 556.93 1152.66 556.93 1151.59 602.05 1096.96 602.05 1096.96 556.93"/><path class="cls-8" d="M525.93,77.16h837a5.09,5.09,0,0,1,5,6l-58.78,308.07a5.09,5.09,0,0,1-5,4.14H582.53a5.09,5.09,0,0,1-5-4.17L520.92,83.17A5.1,5.1,0,0,1,525.93,77.16Z"/><path class="cls-3" d="M547.4,109.24l45,256.56a7.11,7.11,0,0,0,7,5.87h694.31a7.1,7.1,0,0,0,7-6L1342,109.14a7.11,7.11,0,0,0-7-8.23H554.4A7.11,7.11,0,0,0,547.4,109.24Z"/><rect class="cls-7" x="1156.34" y="556.93" width="109.31" height="45.13"/><polygon class="cls-7" points="676.57 556.93 732.27 556.93 731.2 602.05 676.57 602.05 676.57 556.93"/><rect class="cls-7" x="1182.46" y="606.8" width="83.89" height="40.85"/><rect class="cls-7" x="617.26" y="605.77" width="83.89" height="40.85"/><polygon class="cls-7" points="707.45 606.8 763.15 606.8 762.07 647.18 707.45 647.18 707.45 606.8"/><polygon class="cls-7" points="766.82 606.8 822.52 606.8 821.45 647.18 766.82 647.18 766.82 606.8"/><polygon class="cls-7" points="826.2 606.8 881.9 606.8 880.83 647.18 826.2 647.18 826.2 606.8"/><polygon class="cls-7" points="885.58 606.8 941.28 606.8 940.21 647.18 885.58 647.18 885.58 606.8"/><polygon class="cls-7" points="944.96 606.8 1000.65 606.8 999.58 647.18 944.96 647.18 944.96 606.8"/><polygon class="cls-7" points="1004.33 606.8 1060.03 606.8 1058.96 647.18 1004.33 647.18 1004.33 606.8"/><polygon class="cls-7" points="1063.71 606.8 1119.41 606.8 1118.34 647.18 1063.71 647.18 1063.71 606.8"/><polygon class="cls-7" points="1123.09 606.8 1178.79 606.8 1177.71 647.18 1123.09 647.18 1123.09 606.8"/><polygon class="cls-9" points="795.33 692.31 795.33 651 1025.71 651.88 1025.71 692.31 795.33 692.31"/><polygon class="cls-7" points="617.19 651.93 672.89 651.93 671.82 692.31 617.19 692.31 617.19 651.93"/><polygon class="cls-7" points="676.57 651.93 732.27 651.93 731.2 692.31 676.57 692.31 676.57 651.93"/><polygon class="cls-7" points="735.95 651.93 791.65 651.93 790.58 692.31 735.95 692.31 735.95 651.93"/><polygon class="cls-7" points="1089.84 651.93 1145.54 651.93 1144.46 692.31 1089.84 692.31 1089.84 651.93"/><polygon class="cls-7" points="1030.46 651.93 1086.16 651.93 1085.09 692.31 1030.46 692.31 1030.46 651.93"/><polygon class="cls-7" points="1210.96 651.93 1266.66 651.93 1265.59 692.31 1210.96 692.31 1210.96 651.93"/><polygon class="cls-7" points="1149.21 651.93 1204.91 651.93 1203.84 692.31 1149.21 692.31 1149.21 651.93"/><rect class="cls-10" x="840.45" y="711.31" width="222.55" height="121.68" rx="4.09"/><rect class="cls-11" x="842.83" y="799.19" width="106.31" height="30.81"/><rect class="cls-11" x="953.68" y="798.92" width="106.31" height="30.81"/><g id="amT81p.tif"><image id="Layer_0" data-name="Layer 0" width="400" height="380" transform="translate(110 172.68) rotate(-13.72) scale(0.17)" xlink:href="Artboard%2021.png"/></g><path class="cls-2" d="M1269.38,15.4l47.7,16.11s-106.92,11.28-158.67,0S1249.74,60.74,1317.08,55L1390,73.39s115-19.33,158.51,27.39c0,0,32.26-4.84,169.73-21s-108.62-21.74-108.62-21.74S1527.49,75,1495.22,29.9c0,0-61.72,14.5-99.59,4.83S1269.38,15.4,1269.38,15.4Z"/><path class="cls-2" d="M799.57,966.24c62.59-26-436.57-.53-436.57-.53V984S771.36,978,799.57,966.24Z"/><path class="cls-12" d="M1740.9,326.18l-70.71-53.94a13.67,13.67,0,0,0-19.19,2.44L1524.64,440.33a13.67,13.67,0,0,0,2.72,19.15l70.71,53.94a13.69,13.69,0,0,0,19.2-2.43l126.36-165.66A13.67,13.67,0,0,0,1740.9,326.18Z"/><rect x="1519.25" y="336.54" width="230.39" height="112.27" rx="13.28" transform="translate(330.96 1454.06) rotate(-52.66)"/><rect class="cls-13" x="1688.25" y="309.92" width="17.94" height="1.12" rx="0.5" transform="translate(536.08 -965.72) rotate(37.34)"/><circle class="cls-13" cx="1687.86" cy="303.34" r="1.68"/><circle class="cls-14" cx="1687.86" cy="303.34" r="0.56"/><circle class="cls-13" cx="1575.81" cy="469.64" r="8.97"/><circle cx="1575.81" cy="469.64" r="7.85"/><rect class="cls-15" x="43" y="632" width="479" height="319.13" rx="7.19"/><path class="cls-16" d="M275,651.19V932.62c0,4-3.7,7.19-8.26,7.19H60.26c-4.56,0-8.26-3.22-8.26-7.19V651.19c0-4,3.7-7.19,8.26-7.19H266.74C271.3,644,275,647.22,275,651.19Z"/><path class="cls-3" d="M513,651.16V932.6c0,4-3.71,7.18-8.28,7.18h-207c-4.57,0-8.28-3.21-8.28-7.18V651.16c0-4,3.71-7.18,8.28-7.18h207C509.29,644,513,647.19,513,651.16Z"/><ellipse cx="295" cy="661.5" rx="2" ry="2.5"/><ellipse cx="271" cy="661.5" rx="2" ry="2.5"/><rect class="cls-17" x="271" y="659" width="24" height="1"/><rect class="cls-17" x="271" y="661" width="24" height="1"/><rect class="cls-17" x="271" y="663" width="24" height="1"/><ellipse cx="295" cy="681.5" rx="2" ry="2.5"/><ellipse cx="271" cy="681.5" rx="2" ry="2.5"/><rect class="cls-17" x="271" y="679" width="24" height="1"/><rect class="cls-17" x="271" y="681" width="24" height="1"/><rect class="cls-17" x="271" y="683" width="24" height="1"/><ellipse cx="295" cy="701.5" rx="2" ry="2.5"/><ellipse cx="271" cy="701.5" rx="2" ry="2.5"/><rect class="cls-17" x="271" y="699" width="24" height="1"/><rect class="cls-17" x="271" y="701" width="24" height="1"/><rect class="cls-17" x="271" y="703" width="24" height="1"/><ellipse cx="295" cy="721.5" rx="2" ry="2.5"/><ellipse cx="271" cy="721.5" rx="2" ry="2.5"/><rect class="cls-17" x="271" y="719" width="24" height="1"/><rect class="cls-17" x="271" y="721" width="24" height="1"/><rect class="cls-17" x="271" y="723" width="24" height="1"/><ellipse cx="295" cy="741.5" rx="2" ry="2.5"/><ellipse cx="271" cy="741.5" rx="2" ry="2.5"/><rect class="cls-17" x="271" y="739" width="24" height="1"/><rect class="cls-17" x="271" y="741" width="24" height="1"/><rect class="cls-17" x="271" y="743" width="24" height="1"/><ellipse cx="295" cy="761.5" rx="2" ry="2.5"/><ellipse cx="271" cy="761.5" rx="2" ry="2.5"/><rect class="cls-17" x="271" y="759" width="24" height="1"/><rect class="cls-17" x="271" y="761" width="24" height="1"/><rect class="cls-17" x="271" y="763" width="24" height="1"/><ellipse cx="295" cy="781.5" rx="2" ry="2.5"/><ellipse cx="271" cy="781.5" rx="2" ry="2.5"/><rect class="cls-17" x="271" y="779" width="24" height="1"/><rect class="cls-17" x="271" y="781" width="24" height="1"/><rect class="cls-17" x="271" y="783" width="24" height="1"/><ellipse cx="295" cy="801.5" rx="2" ry="2.5"/><ellipse cx="271" cy="801.5" rx="2" ry="2.5"/><rect class="cls-17" x="271" y="799" width="24" height="1"/><rect class="cls-17" x="271" y="801" width="24" height="1"/><rect class="cls-17" x="271" y="803" width="24" height="1"/><ellipse cx="295" cy="821.5" rx="2" ry="2.5"/><ellipse cx="271" cy="821.5" rx="2" ry="2.5"/><rect class="cls-17" x="271" y="819" width="24" height="1"/><rect class="cls-17" x="271" y="821" width="24" height="1"/><rect class="cls-17" x="271" y="823" width="24" height="1"/><ellipse cx="295" cy="841.5" rx="2" ry="2.5"/><ellipse cx="271" cy="841.5" rx="2" ry="2.5"/><rect class="cls-17" x="271" y="839" width="24" height="1"/><rect class="cls-17" x="271" y="841" width="24" height="1"/><rect class="cls-17" x="271" y="843" width="24" height="1"/><ellipse cx="295" cy="861.5" rx="2" ry="2.5"/><ellipse cx="271" cy="861.5" rx="2" ry="2.5"/><rect class="cls-17" x="271" y="859" width="24" height="1"/><rect class="cls-17" x="271" y="861" width="24" height="1"/><rect class="cls-17" x="271" y="863" width="24" height="1"/><ellipse cx="295" cy="881.5" rx="2" ry="2.5"/><ellipse cx="271" cy="881.5" rx="2" ry="2.5"/><rect class="cls-17" x="271" y="879" width="24" height="1"/><rect class="cls-17" x="271" y="881" width="24" height="1"/><rect class="cls-17" x="271" y="883" width="24" height="1"/><ellipse cx="295" cy="906.5" rx="2" ry="2.5"/><ellipse cx="271" cy="906.5" rx="2" ry="2.5"/><rect class="cls-17" x="271" y="904" width="24" height="1"/><rect class="cls-17" x="271" y="906" width="24" height="1"/><rect class="cls-17" x="271" y="908" width="24" height="1"/><ellipse cx="295" cy="926.5" rx="2" ry="2.5"/><ellipse cx="271" cy="926.5" rx="2" ry="2.5"/><rect class="cls-17" x="271" y="924" width="24" height="1"/><rect class="cls-17" x="271" y="926" width="24" height="1"/><rect class="cls-17" x="271" y="928" width="24" height="1"/><rect x="69" y="672" width="189" height="1"/><rect x="69" y="688" width="189" height="1"/><rect x="69" y="703" width="189" height="1"/><rect x="69" y="719" width="189" height="1"/><rect x="69" y="735" width="189" height="1"/><rect x="69" y="751" width="189" height="1"/><rect x="69" y="766" width="189" height="1"/><rect x="69" y="782" width="189" height="1"/><rect x="69" y="798" width="189" height="1"/><rect x="69" y="814" width="189" height="1"/><rect x="69" y="829" width="189" height="1"/><rect x="69" y="845" width="189" height="1"/><rect x="69" y="861" width="189" height="1"/><rect x="69" y="876" width="189" height="1"/><rect x="69" y="892" width="189" height="1"/><rect x="313" y="672" width="189" height="1"/><rect x="313" y="688" width="189" height="1"/><rect x="313" y="703" width="189" height="1"/><rect x="313" y="719" width="189" height="1"/><rect x="313" y="735" width="189" height="1"/><rect x="313" y="751" width="189" height="1"/><rect x="313" y="766" width="189" height="1"/><rect x="313" y="782" width="189" height="1"/><rect x="313" y="798" width="189" height="1"/><rect x="313" y="814" width="189" height="1"/><rect x="313" y="829" width="189" height="1"/><rect x="313" y="845" width="189" height="1"/><rect x="313" y="861" width="189" height="1"/><rect x="313" y="876" width="189" height="1"/><rect x="313" y="892" width="189" height="1"/><rect class="cls-18" x="91.8" y="781.81" width="11" height="149.69" transform="translate(-380.98 139.32) rotate(-27.21)"/><rect x="125.94" y="922.54" width="11" height="1" transform="translate(-407.56 162.28) rotate(-27.21)"/><rect class="cls-19" x="128" y="923.05" width="11" height="8" transform="translate(-409.17 163.66) rotate(-27.21)"/><polygon class="cls-20" points="58.18 792.61 57.68 779.6 67.96 787.58 58.18 792.61"/><polygon points="57.76 781.85 59.45 780.98 57.68 779.6 57.76 781.85"/><rect class="cls-21" x="1425.14" y="563.26" width="179.65" height="281.55" transform="translate(193.59 -318.09) rotate(12.8)"/><path class="cls-22" d="M1447.54,539.79,1615.87,579a3.52,3.52,0,0,1,2.63,4.23l-58.1,249.28a3.52,3.52,0,0,1-4.23,2.63L1390.4,796.52a3.51,3.51,0,0,1-2.63-4.18l55.54-249.89A3.52,3.52,0,0,1,1447.54,539.79Z"/><polygon class="cls-23" points="1584.2 670.03 1596.47 615.3 1603.98 614.03 1605.84 606.37 1601.96 601.17 1578.45 604.74 1576.32 613.5 1579.27 618.33 1581.73 617.78 1571.57 666.97 1575.76 673.02 1584.2 670.03"/><polygon class="cls-24" points="1600.75 601.91 1598.85 609.72 1592.56 610.21 1581.05 666.07 1571.6 666.86 1583.11 611 1577.54 612.74 1579.42 605 1600.75 601.91"/><polygon class="cls-25" points="1533.07 604.96 1542.78 603.32 1528.3 667.75 1518.84 668.41 1533.07 604.96"/><path class="cls-26" d="M1487.66,669.31l9.51-.73,5.8-25.9,2.2-.49-1.41,24.92,9.77-1.71,1-27.14s21.38-26.08,3.17-35.51l-15.71.69Z"/><polygon class="cls-27" points="1571.86 600.25 1575.25 603.18 1559.94 667.38 1554.6 668.09 1551.94 666.38 1550.35 640.18 1543.92 669.5 1536.4 670.68 1532.77 668.72 1546.14 604.02 1554.63 603.09 1557.05 605.77 1557.93 626.63 1563.13 602.15 1571.86 600.25"/><polygon class="cls-28" points="1571.37 602.19 1565.06 602.65 1556.41 640.69 1553.17 604.78 1547.83 605.49 1534.23 667.03 1540.54 666.57 1549.45 623.44 1553.4 664.69 1556.55 664.46 1571.37 602.19"/><path class="cls-29" d="M1467.74,666.85l5.39-22s14.25.51,19.36-20.35-3.85-22-3.85-22-2.42-2.7-16.48.17L1459,668.92Z"/><path class="cls-30" d="M1475.28,636.07l5.11-25.07s8.72-2.07,5.32,11.83S1475.28,636.07,1475.28,636.07Z"/><path class="cls-22" d="M1509.4,611.64l-6,21.74s7.63-.45,10.26-10.36.75-10.61.75-10.61S1512.93,610.76,1509.4,611.64Z"/><path class="cls-31" d="M1461.14,610.79l3.55-8.41s-11.88-10-22.29,7c0,0-6,11.93,3.31,30.6s-4.94,16.3-4.94,16.3-1.23.73-3.55-2.9l-4.32,9.25s12.11,7,19.9-3.49,2.39-19,2.39-19-9.94-25-2.07-31.33C1453.12,608.88,1456.82,606.67,1461.14,610.79Z"/></svg>