<svg xmlns="http://www.w3.org/2000/svg" width="40.757" height="36.642" viewBox="0 0 40.757 36.642">
  <defs>
    <style>
      .cls-1 {
        fill: #fff;
      }
    </style>
  </defs>
  <g id="Social_Buttons_Square_Button_Facebook" data-name="Social Buttons / Square Button / Facebook" transform="translate(-0.001 0)">
    <path id="Facebook" class="cls-1" d="M-533.691-1024.489c-4.573-.075-9.146-.149-13.717-.126a1.01,1.01,0,0,1-1.041-1.048,40.166,40.166,0,0,1-.554-9c.025-3.215-.133-6.43-.158-9.644-.043-5.116.137-10.231.14-15.35a.98.98,0,0,1,.486-.884.973.973,0,0,1,.743-.276c12.638.33,25.275.079,37.909-.183a.971.971,0,0,1,.765.3.96.96,0,0,1,.309.777c-.352,11.409.676,22.81.324,34.223a1.016,1.016,0,0,1-.417.822,1.063,1.063,0,0,1-.658.252c-4.031.2-8.062.263-12.094.263C-525.666-1024.359-529.679-1024.424-533.691-1024.489Zm-.008-2.155c7.7.125,15.393.25,23.086-.085.254-10.7-.632-21.391-.381-32.094-11.957.248-23.915.47-35.874.184-.023,4.589-.171,9.179-.141,13.768.018,3.121.176,6.24.169,9.357a46.742,46.742,0,0,0,.362,8.74h.76C-541.712-1026.775-537.706-1026.709-533.7-1026.644Zm2-5.443a1.013,1.013,0,0,1-.937-.611,1.137,1.137,0,0,1-.141-.467,59.8,59.8,0,0,1-.208-6.406c-.755-.018-1.51-.027-2.266-.053a1.082,1.082,0,0,1-1.039-.79,22.354,22.354,0,0,1-.237-2.719c-.011-.734-.083-1.614.564-2.112a4.917,4.917,0,0,1,2.216-.46c.349-.046.692-.077,1.036-.09-.026-2.275-.326-4.948,1.1-6.746,1.441-1.817,4.034-2.159,6.186-1.71,2.087.435,4.336,1.861,4.864,4.053.456,1.9-.744,3.919-2.687,3.8a.844.844,0,0,1-.713-.144.913.913,0,0,1-.507-.525c-.161-.246-.265-.507-.465-.8a.84.84,0,0,0-1.182-.269c-.355.294-.191,1.229-.162,1.6.017.216.037.432.054.646.8-.042,1.6-.058,2.4-.09a.931.931,0,0,1,.939.551,1.077,1.077,0,0,1,.139.528c.029,1.48.014,2.957.132,4.432a.9.9,0,0,1-.346.836.948.948,0,0,1-.731.242c-.651-.036-1.3-.03-1.951-.023-.265,0-.529,0-.794,0q-.008,3.087.234,6.165a.894.894,0,0,1-.7,1,1.152,1.152,0,0,1-.375.077c-1.118.049-2.237.094-3.357.094Q-531.161-1032.072-531.7-1032.087Zm3.274-2.187q-.193-2.979-.154-5.965a1,1,0,0,1,.993-1.353c.65.036,1.3.03,1.95.023.269,0,.538-.005.807,0-.032-.737-.041-1.475-.05-2.213-.734.024-1.468.05-2.2.111a1.059,1.059,0,0,1-.417-.042.945.945,0,0,1-.844-1.021c.068-1.735-.751-4.361,1.265-5.314a3.192,3.192,0,0,1,2.659-.147,3.233,3.233,0,0,1,1.117.926,3.432,3.432,0,0,1,.336.5,1.112,1.112,0,0,0,.1-1.47,2.4,2.4,0,0,0-.7-.779,4.932,4.932,0,0,0-1.66-.938,5.268,5.268,0,0,0-3.671.032c-2.443,1.124-1.545,5.04-1.67,7.223a1.167,1.167,0,0,1-.075.356.917.917,0,0,1-1,.725,11.986,11.986,0,0,0-2.722.128c0,.02,0,.039,0,.059,0,.252,0,.507.014.762q.018.463.059.925c.731.017,1.461.026,2.193.051a1.252,1.252,0,0,1,.146.014.989.989,0,0,1,1.166,1.032,61.268,61.268,0,0,0,.1,6.427C-529.939-1034.226-529.181-1034.246-528.421-1034.274Zm-5.789-6.714Z" transform="translate(549.169 1061)"/>
  </g>
</svg>
