<svg xmlns="http://www.w3.org/2000/svg" width="40.757" height="36.642" viewBox="0 0 40.757 36.642">
  <defs>
    <style>
      .cls-1 {
        fill: #fff;
      }
    </style>
  </defs>
  <g id="Social_Buttons_Square_Button_Instagram" data-name="Social Buttons / Square Button / Instagram" transform="translate(-0.001 0)">
    <path id="Instagram" class="cls-1" d="M-719.537-1024.489c-4.568-.074-9.135-.149-13.7-.126a1.01,1.01,0,0,1-1.041-1.052,40.142,40.142,0,0,1-.554-9c.025-3.215-.133-6.43-.158-9.644-.043-5.116.137-10.231.14-15.349a.98.98,0,0,1,.485-.884.973.973,0,0,1,.743-.277c12.638.33,25.275.079,37.909-.183a.971.971,0,0,1,.762.3.96.96,0,0,1,.313.78c-.353,11.409.675,22.81.323,34.223a1.016,1.016,0,0,1-.417.822,1.062,1.062,0,0,1-.657.251c-4.033.2-8.066.263-12.1.263C-711.507-1024.359-715.523-1024.424-719.537-1024.489Zm0-2.155c7.7.126,15.4.251,23.1-.084.254-10.7-.631-21.392-.381-32.095-11.957.248-23.915.47-35.874.184-.023,4.589-.171,9.178-.141,13.768.018,3.121.176,6.24.169,9.358a46.736,46.736,0,0,0,.362,8.739h.759C-727.547-1026.775-723.543-1026.709-719.539-1026.644Zm8.753-4.7c-.508-.014-1-.028-1.448-.023-4.986.049-11.736.129-13.78-5.464-1.1-3-.977-6.56-.909-9.7.054-2.6.2-5.449,2.784-6.815,2.457-1.3,5.755-1.063,8.449-1.207,3.042-.16,6.076-.175,9.122-.119h.078q.057,0,.111.007c2.4.173,3.475,1.978,3.79,4.228a51.871,51.871,0,0,1-.058,10.181c-.151,2.45.175,6.02-1.969,7.755-1.241,1.005-3.043,1.181-4.791,1.181C-709.875-1031.316-710.339-1031.328-710.787-1031.341Zm-4.383-21.078c-1.34.065-2.68.148-4.02.238-1.49.1-3.509.068-4.633,1.239-1.183,1.229-.938,3.509-.956,5.075-.018,1.542.022,3.086.133,4.623.24,3.316,1.156,6.211,4.705,7.138a30.989,30.989,0,0,0,8.133.582c1.25-.022,2.515-.014,3.765-.094,2.245-.144,2.834-1.326,3.028-3.406.3-3.143.453-6.34.46-9.5,0-1.594.432-5.809-1.883-5.989h-.05q-1.644-.033-3.285-.035C-711.573-1052.543-713.371-1052.508-715.17-1052.419Zm-5.008,11.039a5.548,5.548,0,0,1,4.677-6.937c3-.527,6.368.905,6.893,4.16,0,.022.006.043.009.065a1.218,1.218,0,0,1,.031.226c.148,3.291-1.62,6.4-5.087,6.876a6.054,6.054,0,0,1-.824.056A5.828,5.828,0,0,1-720.177-1041.379Zm2.166-.248a3.7,3.7,0,0,0,4.339,2.464c2.229-.467,3.018-2.543,2.953-4.605a3.23,3.23,0,0,0-3.394-2.513C-716.443-1046.281-718.929-1044.516-718.011-1041.628Zm8.215-7.123a1.338,1.338,0,0,1,.058-1.508,1.332,1.332,0,0,1,1.084-.525,1.451,1.451,0,0,1,1.276.834,1.429,1.429,0,0,1,.276.535,1.258,1.258,0,0,1-.844,1.494,1.173,1.173,0,0,1-.381.062A1.84,1.84,0,0,1-709.8-1048.751Z" transform="translate(735 1061)"/>
  </g>
</svg>
