<svg id="Layer_1" data-name="Layer 1" xmlns="http://www.w3.org/2000/svg" xmlns:xlink="http://www.w3.org/1999/xlink" width="1920" height="1080" viewBox="0 0 1920 1080"><defs><style>.cls-1{fill:#a56200;}.cls-2{fill:#844d03;}.cls-16,.cls-3{fill:#fff;}.cls-4{fill:#623f23;}.cls-5{fill:#3e2715;}.cls-6{fill:#e5e5e7;}.cls-7{fill:#737373;}.cls-8{fill:#5f6769;}.cls-9{fill:#747474;}.cls-10{fill:#f9f9f9;}.cls-11{fill:#c0bdc4;}.cls-12{fill:#69696c;}.cls-13{fill:#515151;}.cls-14{fill:#043254;}.cls-15{stroke:#000;}.cls-15,.cls-16{stroke-miterlimit:10;}.cls-16{stroke:#fff;}.cls-17{fill:#595a5b;}.cls-18{fill:#d73c3a;}.cls-19{fill:#d65a2c;}.cls-20{fill:#d2a06b;}.cls-21{fill:#2b2a28;opacity:0.59;}.cls-22{fill:#01afda;}.cls-23{fill:#e67a16;}.cls-24{fill:#edc214;}.cls-25{fill:#ebca49;}.cls-26{fill:#ecd68d;}.cls-27{fill:#e99922;}.cls-28{fill:#ecc110;}.cls-29{fill:#e3e5cd;}.cls-30{fill:#01b3e1;}.cls-31{fill:#e1fdff;}</style></defs><polygon class="cls-1" points="0.41 1 0.41 297.79 0.41 1081 1920.41 1081 1920.41 1 0.41 1"/><path class="cls-2" d="M464.82,339.54c55.34-17.34-386-.36-386-.36v12.16S439.87,347.35,464.82,339.54Z"/><path class="cls-2" d="M445.81,671.91c52.62-26-367-.53-367-.53v18.26S422.09,683.64,445.81,671.91Z"/><path class="cls-2" d="M553.44,381.7c68-25.47-474.62-.52-474.62-.52v17.87S522.77,393.18,553.44,381.7Z"/><path class="cls-2" d="M445.81,636.76c52.62-13.26-367-.27-367-.27v9.3S422.09,642.74,445.81,636.76Z"/><path class="cls-2" d="M498.19,594.86c32.43-16.16-226.19-.32-226.19-.32v11.33S483.57,602.15,498.19,594.86Z"/><path class="cls-2" d="M1312.53,969l45.15,10s-101.22,7-150.21,0,86.47,18.15,150.21,14.57l69.06,11.43s108.89-12,150.06,17c0,0,30.54-3,160.68-13s-102.83-13.5-102.83-13.5-77.77,10.5-108.32-17.5c0,0-58.43,9-94.28,3S1312.53,969,1312.53,969Z"/><path class="cls-2" d="M953.74,494.78l44.64,16.11s-100.07,11.28-148.5,0,85.48,29.23,148.5,23.48l68.28,18.4s107.65-19.33,148.35,27.39c0,0,30.2-4.84,158.87-20.95s-101.67-21.74-101.67-21.74-76.89,16.91-107.09-28.19c0,0-57.76,14.5-93.21,4.83S953.74,494.78,953.74,494.78Z"/><path class="cls-2" d="M333.19,795.43l30.28,8s-67.89,5.58-100.74,0,58,14.46,100.74,11.61l46.31,9.1s73-9.56,100.64,13.54c0,0,20.48-2.39,107.76-10.35s-69-10.76-69-10.76-52.16,8.37-72.64-13.93c0,0-39.19,7.17-63.24,2.39S333.19,795.43,333.19,795.43Z"/><path class="cls-2" d="M282.37,177.51,331,190.58s-109,9.16-161.76,0S262.35,214.32,331,209.64l74.36,14.94S522.62,208.89,567,246.81c0,0,32.89-3.92,173-17s-110.73-17.65-110.73-17.65-83.75,13.73-116.64-22.88c0,0-62.93,11.77-101.54,3.92S282.37,177.51,282.37,177.51Z"/><circle class="cls-3" cx="1599.85" cy="271.08" r="84.28"/><circle class="cls-4" cx="1600.35" cy="271.75" r="70.72"/><path class="cls-5" d="M1626,324.13s29-17.54,21-29.5,6.52-31,6.52-31-21.67-23.28-14.62-30.52-48.23-16.32-48.23-16.32-32.19,6.25-29.31,19.9-18,33.55-18,33.55,14.5,16.51,8.27,26.45,29.68,28.3,29.68,28.3S1617.09,319.25,1626,324.13Z"/><circle class="cls-5" cx="1547.66" cy="244.6" r="2.95"/><circle class="cls-5" cx="1650.5" cy="241.38" r="4.13"/><circle class="cls-5" cx="1542.35" cy="286.11" r="4.71"/><ellipse class="cls-5" cx="1603.98" cy="332.82" rx="5.62" ry="5.61" transform="translate(1176.59 1914.23) rotate(-86.6)"/><circle class="cls-5" cx="1659.04" cy="283.04" r="2.87"/><circle class="cls-5" cx="1615.65" cy="214.4" r="2.36"/><circle class="cls-5" cx="1602.48" cy="210.74" r="4.13"/><rect class="cls-3" x="1657.38" y="208.93" width="89.58" height="16.5" rx="5.9" transform="translate(3345.93 -275.32) rotate(156.05)"/><path class="cls-2" d="M1159.13,619.5c84.68-12.82-590.59-.26-590.59-.26v9S1121,625.28,1159.13,619.5Z"/><rect class="cls-6" x="199.89" y="231.05" width="331.81" height="207.18" rx="13.35" transform="translate(-73.46 104.76) rotate(-14.83)"/><polygon class="cls-7" points="206.86 299.79 230.87 293.43 235.56 313.01 212.01 319.25 206.86 299.79"/><polygon class="cls-7" points="232.46 293.01 256.47 286.66 261.16 306.23 237.61 312.47 232.46 293.01"/><polygon class="cls-7" points="283.66 279.46 307.67 273.1 312.36 292.68 288.81 298.92 283.66 279.46"/><polygon class="cls-7" points="258.06 286.24 282.07 279.88 286.76 299.46 263.21 305.69 258.06 286.24"/><polygon class="cls-7" points="309.25 272.68 333.27 266.33 337.96 285.9 314.4 292.14 309.25 272.68"/><polygon class="cls-7" points="334.85 265.91 358.87 259.55 363.55 279.13 340 285.36 334.85 265.91"/><polygon class="cls-7" points="360.45 259.13 384.46 252.77 389.15 272.35 365.6 278.58 360.45 259.13"/><polygon class="cls-7" points="411.65 245.57 435.66 239.22 440.35 258.8 416.8 265.03 411.65 245.57"/><polygon class="cls-7" points="386.05 252.35 410.06 245.99 414.75 265.57 391.2 271.81 386.05 252.35"/><polygon class="cls-7" points="437.25 238.8 461.26 232.44 465.95 252.02 442.4 258.25 437.25 238.8"/><polygon class="cls-7" points="462.85 232.02 486.86 225.66 491.55 245.24 468 251.47 462.85 232.02"/><rect class="cls-7" x="459.22" y="251.57" width="35.95" height="19.4" transform="translate(-50.97 130.83) rotate(-14.83)"/><polygon class="cls-7" points="430.65 263.55 454.67 257.2 459.35 276.77 435.8 283.01 430.65 263.55"/><polygon class="cls-7" points="404.03 270.6 428.04 264.24 432.73 283.82 409.18 290.06 404.03 270.6"/><polygon class="cls-7" points="378.43 277.38 402.44 271.02 407.13 290.6 383.58 296.83 378.43 277.38"/><polygon class="cls-7" points="352.83 284.16 376.85 277.8 381.53 297.38 357.98 303.61 352.83 284.16"/><polygon class="cls-7" points="327.24 290.93 351.25 284.58 355.94 304.15 332.38 310.39 327.24 290.93"/><polygon class="cls-7" points="301.64 297.71 325.65 291.35 330.34 310.93 306.79 317.17 301.64 297.71"/><polygon class="cls-7" points="276.04 304.49 300.05 298.13 304.74 317.71 281.19 323.94 276.04 304.49"/><polygon class="cls-7" points="218.25 342.8 242.26 336.44 246.95 356.02 223.4 362.25 218.25 342.8"/><rect class="cls-7" x="214.01" y="316.01" width="35.95" height="19.4" transform="translate(-75.63 70.22) rotate(-14.83)"/><polygon class="cls-7" points="249.41 311.54 273.43 305.18 278.12 324.75 254.56 330.99 249.41 311.54"/><polygon class="cls-7" points="269.44 329.24 293.46 322.89 298.14 342.46 274.59 348.7 269.44 329.24"/><polygon class="cls-7" points="295.04 322.47 319.06 316.11 323.74 335.69 300.19 341.92 295.04 322.47"/><polygon class="cls-7" points="320.64 315.69 344.65 309.33 349.34 328.91 325.79 335.14 320.64 315.69"/><polygon class="cls-7" points="346.24 308.91 370.25 302.55 374.94 322.13 351.39 328.37 346.24 308.91"/><polygon class="cls-7" points="371.84 302.13 395.85 295.78 400.54 315.36 376.99 321.59 371.84 302.13"/><polygon class="cls-7" points="398.46 295.09 422.47 288.73 427.16 308.31 403.61 314.54 398.46 295.09"/><polygon class="cls-7" points="425.08 288.04 449.1 281.68 453.78 301.26 430.23 307.49 425.08 288.04"/><path class="cls-8" d="M124.14,146.38,485,50.85a2.26,2.26,0,0,1,2.84,2l9.83,139.53a2.26,2.26,0,0,1-1.69,2.35L184.87,277.13a2.28,2.28,0,0,1-2.64-1.23L122.67,149.54A2.26,2.26,0,0,1,124.14,146.38Z"/><path class="cls-3" d="M137.06,157.76l48.69,105.46a3.16,3.16,0,0,0,3.68,1.74l299.33-79.25a3.15,3.15,0,0,0,2.34-3.37L479.62,67a3.18,3.18,0,0,0-4-2.75l-336.52,89.1A3.16,3.16,0,0,0,137.06,157.76Z"/><rect class="cls-7" x="452.44" y="274.69" width="48.75" height="20.13" transform="matrix(0.97, -0.26, 0.26, 0.97, -57, 131.51)"/><polygon class="cls-7" points="243.84 336.02 267.86 329.66 272.55 349.24 249 355.48 243.84 336.02"/><rect class="cls-7" x="469.35" y="294.69" width="37.41" height="18.22" transform="matrix(0.97, -0.26, 0.26, 0.97, -61.5, 135.02)"/><rect class="cls-7" x="225.56" y="358.76" width="37.41" height="18.22" transform="translate(-86.01 74.77) rotate(-14.83)"/><polygon class="cls-7" points="262.85 354 286.86 347.64 291.01 365.17 267.46 371.41 262.85 354"/><polygon class="cls-7" points="288.45 347.22 312.46 340.86 316.61 358.39 293.06 364.63 288.45 347.22"/><polygon class="cls-7" points="314.05 340.44 338.06 334.09 342.2 351.62 318.65 357.85 314.05 340.44"/><polygon class="cls-7" points="339.64 333.67 363.66 327.31 367.8 344.84 344.25 351.07 339.64 333.67"/><polygon class="cls-7" points="365.24 326.89 389.26 320.53 393.4 338.06 369.85 344.3 365.24 326.89"/><polygon class="cls-7" points="390.84 320.11 414.86 313.76 419 331.29 395.45 337.52 390.84 320.11"/><polygon class="cls-7" points="416.44 313.34 440.45 306.98 444.6 324.51 421.05 330.74 416.44 313.34"/><polygon class="cls-7" points="442.04 306.56 466.05 300.2 470.2 317.73 446.65 323.97 442.04 306.56"/><polygon class="cls-9" points="310.49 380.83 305.78 363.02 405.2 337.11 409.82 354.54 310.49 380.83"/><polygon class="cls-7" points="229.09 383.75 253.1 377.4 257.25 394.93 233.7 401.16 229.09 383.75"/><polygon class="cls-7" points="254.69 376.98 278.7 370.62 282.85 388.15 259.3 394.38 254.69 376.98"/><polygon class="cls-7" points="280.29 370.2 304.3 363.84 308.44 381.37 284.89 387.61 280.29 370.2"/><polygon class="cls-7" points="432.85 329.81 456.87 323.45 461.01 340.98 437.46 347.22 432.85 329.81"/><polygon class="cls-7" points="407.25 336.59 431.27 330.23 435.41 347.76 411.86 353.99 407.25 336.59"/><polygon class="cls-7" points="485.07 315.98 509.09 309.63 513.23 327.16 489.68 333.39 485.07 315.98"/><polygon class="cls-7" points="458.45 323.03 482.47 316.68 486.61 334.2 463.06 340.44 458.45 323.03"/><rect class="cls-10" x="337.41" y="370.27" width="99.25" height="54.27" rx="1.82" transform="translate(-88.82 112.29) rotate(-14.83)"/><rect class="cls-11" x="344.14" y="415.19" width="47.41" height="13.74" transform="translate(-95.77 108.2) rotate(-14.83)"/><rect class="cls-11" x="391.9" y="402.42" width="47.41" height="13.74" transform="matrix(0.97, -0.26, 0.26, 0.97, -90.91, 120)"/><rect class="cls-6" x="651.69" y="391.63" width="744.01" height="464.56" rx="29.94"/><polygon class="cls-7" points="699.19 457.18 754.89 457.18 753.82 502.3 699.19 502.3 699.19 457.18"/><polygon class="cls-7" points="758.57 457.18 814.27 457.18 813.2 502.3 758.57 502.3 758.57 457.18"/><polygon class="cls-7" points="877.33 457.18 933.02 457.18 931.95 502.3 877.33 502.3 877.33 457.18"/><polygon class="cls-7" points="817.95 457.18 873.65 457.18 872.58 502.3 817.95 502.3 817.95 457.18"/><polygon class="cls-7" points="936.7 457.18 992.4 457.18 991.33 502.3 936.7 502.3 936.7 457.18"/><polygon class="cls-7" points="996.08 457.18 1051.78 457.18 1050.71 502.3 996.08 502.3 996.08 457.18"/><polygon class="cls-7" points="1055.46 457.18 1111.16 457.18 1110.08 502.3 1055.46 502.3 1055.46 457.18"/><polygon class="cls-7" points="1174.21 457.18 1229.91 457.18 1228.84 502.3 1174.21 502.3 1174.21 457.18"/><polygon class="cls-7" points="1114.83 457.18 1170.53 457.18 1169.46 502.3 1114.83 502.3 1114.83 457.18"/><polygon class="cls-7" points="1233.59 457.18 1289.29 457.18 1288.21 502.3 1233.59 502.3 1233.59 457.18"/><polygon class="cls-7" points="1292.96 457.18 1348.66 457.18 1347.59 502.3 1292.96 502.3 1292.96 457.18"/><rect class="cls-7" x="1266.97" y="507.05" width="80.62" height="43.49"/><polygon class="cls-7" points="1205.09 507.05 1260.79 507.05 1259.71 552.18 1205.09 552.18 1205.09 507.05"/><polygon class="cls-7" points="1143.34 507.05 1199.03 507.05 1197.96 552.18 1143.34 552.18 1143.34 507.05"/><polygon class="cls-7" points="1083.96 507.05 1139.66 507.05 1138.58 552.18 1083.96 552.18 1083.96 507.05"/><polygon class="cls-7" points="1024.58 507.05 1080.28 507.05 1079.21 552.18 1024.58 552.18 1024.58 507.05"/><polygon class="cls-7" points="965.2 507.05 1020.9 507.05 1019.83 552.18 965.2 552.18 965.2 507.05"/><polygon class="cls-7" points="905.83 507.05 961.53 507.05 960.45 552.18 905.83 552.18 905.83 507.05"/><polygon class="cls-7" points="846.45 507.05 902.15 507.05 901.08 552.18 846.45 552.18 846.45 507.05"/><polygon class="cls-7" points="699.19 556.93 754.89 556.93 753.82 602.05 699.19 602.05 699.19 556.93"/><rect class="cls-7" x="698.47" y="506.03" width="80.62" height="43.49"/><polygon class="cls-7" points="784.7 507.05 840.4 507.05 839.32 552.18 784.7 552.18 784.7 507.05"/><polygon class="cls-7" points="817.95 556.93 873.65 556.93 872.58 602.05 817.95 602.05 817.95 556.93"/><polygon class="cls-7" points="877.33 556.93 933.02 556.93 931.95 602.05 877.33 602.05 877.33 556.93"/><polygon class="cls-7" points="936.7 556.93 992.4 556.93 991.33 602.05 936.7 602.05 936.7 556.93"/><polygon class="cls-7" points="996.08 556.93 1051.78 556.93 1050.71 602.05 996.08 602.05 996.08 556.93"/><polygon class="cls-7" points="1055.46 556.93 1111.16 556.93 1110.08 602.05 1055.46 602.05 1055.46 556.93"/><polygon class="cls-7" points="1117.21 556.93 1172.91 556.93 1171.84 602.05 1117.21 602.05 1117.21 556.93"/><polygon class="cls-7" points="1178.96 556.93 1234.66 556.93 1233.59 602.05 1178.96 602.05 1178.96 556.93"/><path class="cls-8" d="M607.93,77.16h837a5.09,5.09,0,0,1,5,6l-58.78,308.07a5.09,5.09,0,0,1-5,4.14H664.53a5.09,5.09,0,0,1-5-4.17L602.92,83.17A5.1,5.1,0,0,1,607.93,77.16Z"/><path class="cls-3" d="M629.4,109.24l45,256.56a7.11,7.11,0,0,0,7,5.87h694.31a7.1,7.1,0,0,0,7-6L1424,109.14a7.11,7.11,0,0,0-7-8.23H636.4A7.11,7.11,0,0,0,629.4,109.24Z"/><rect class="cls-7" x="1238.34" y="556.93" width="109.31" height="45.13"/><polygon class="cls-7" points="758.57 556.93 814.27 556.93 813.2 602.05 758.57 602.05 758.57 556.93"/><rect class="cls-7" x="1264.46" y="606.8" width="83.89" height="40.85"/><rect class="cls-7" x="699.26" y="605.77" width="83.89" height="40.85"/><polygon class="cls-7" points="789.45 606.8 845.15 606.8 844.07 647.18 789.45 647.18 789.45 606.8"/><polygon class="cls-7" points="848.82 606.8 904.52 606.8 903.45 647.18 848.82 647.18 848.82 606.8"/><polygon class="cls-7" points="908.2 606.8 963.9 606.8 962.83 647.18 908.2 647.18 908.2 606.8"/><polygon class="cls-7" points="967.58 606.8 1023.28 606.8 1022.21 647.18 967.58 647.18 967.58 606.8"/><polygon class="cls-7" points="1026.95 606.8 1082.65 606.8 1081.58 647.18 1026.95 647.18 1026.95 606.8"/><polygon class="cls-7" points="1086.33 606.8 1142.03 606.8 1140.96 647.18 1086.33 647.18 1086.33 606.8"/><polygon class="cls-7" points="1145.71 606.8 1201.41 606.8 1200.34 647.18 1145.71 647.18 1145.71 606.8"/><polygon class="cls-7" points="1205.09 606.8 1260.79 606.8 1259.71 647.18 1205.09 647.18 1205.09 606.8"/><polygon class="cls-9" points="877.33 692.31 877.33 651 1107.71 651.88 1107.71 692.31 877.33 692.31"/><polygon class="cls-7" points="699.19 651.93 754.89 651.93 753.82 692.31 699.19 692.31 699.19 651.93"/><polygon class="cls-7" points="758.57 651.93 814.27 651.93 813.2 692.31 758.57 692.31 758.57 651.93"/><polygon class="cls-7" points="817.95 651.93 873.65 651.93 872.58 692.31 817.95 692.31 817.95 651.93"/><polygon class="cls-7" points="1171.84 651.93 1227.54 651.93 1226.46 692.31 1171.84 692.31 1171.84 651.93"/><polygon class="cls-7" points="1112.46 651.93 1168.16 651.93 1167.09 692.31 1112.46 692.31 1112.46 651.93"/><polygon class="cls-7" points="1292.96 651.93 1348.66 651.93 1347.59 692.31 1292.96 692.31 1292.96 651.93"/><polygon class="cls-7" points="1231.21 651.93 1286.91 651.93 1285.84 692.31 1231.21 692.31 1231.21 651.93"/><rect class="cls-10" x="922.45" y="711.31" width="222.55" height="121.68" rx="4.09"/><rect class="cls-11" x="924.83" y="799.19" width="106.31" height="30.81"/><rect class="cls-11" x="1035.68" y="798.92" width="106.31" height="30.81"/><g id="amT81p.tif"><image id="Layer_0" data-name="Layer 0" width="400" height="380" transform="translate(192 172.68) rotate(-13.72) scale(0.17)" xlink:href="splashbillede1.png"/></g><path class="cls-2" d="M1351.38,15.4l47.7,16.11s-106.92,11.28-158.67,0S1331.74,60.74,1399.08,55L1472,73.39s115-19.33,158.51,27.39c0,0,32.26-4.84,169.73-21s-108.62-21.74-108.62-21.74S1609.49,75,1577.22,29.9c0,0-61.72,14.5-99.59,4.83S1351.38,15.4,1351.38,15.4Z"/><path class="cls-2" d="M881.57,966.24c62.59-26-436.57-.53-436.57-.53V984S853.36,978,881.57,966.24Z"/><path class="cls-12" d="M1822.44,331l-76.66-58.48a14.83,14.83,0,0,0-20.81,2.64L1588,454.71a14.83,14.83,0,0,0,3,20.77L1667.6,534a14.84,14.84,0,0,0,20.81-2.65l137-179.58A14.84,14.84,0,0,0,1822.44,331Z"/><rect x="1582.14" y="342.19" width="249.78" height="121.71" rx="14.4" transform="translate(351.27 1515.85) rotate(-52.66)"/><rect class="cls-13" x="1765.36" y="313.34" width="19.45" height="1.22" rx="0.5" transform="translate(554.13 -1012.24) rotate(37.34)"/><circle class="cls-13" cx="1764.93" cy="306.2" r="1.82"/><circle class="cls-14" cx="1764.93" cy="306.2" r="0.61"/><circle class="cls-13" cx="1643.46" cy="486.49" r="9.73"/><circle cx="1643.46" cy="486.49" r="8.51"/><rect class="cls-15" x="125" y="632" width="479" height="319.13" rx="7.19"/><path class="cls-16" d="M357,651.19V932.62c0,4-3.7,7.19-8.26,7.19H142.26c-4.56,0-8.26-3.22-8.26-7.19V651.19c0-4,3.7-7.19,8.26-7.19H348.74C353.3,644,357,647.22,357,651.19Z"/><path class="cls-3" d="M595,651.16V932.6c0,4-3.71,7.18-8.28,7.18h-207c-4.57,0-8.28-3.21-8.28-7.18V651.16c0-4,3.71-7.18,8.28-7.18h207C591.29,644,595,647.19,595,651.16Z"/><ellipse cx="377" cy="661.5" rx="2" ry="2.5"/><ellipse cx="353" cy="661.5" rx="2" ry="2.5"/><rect class="cls-17" x="353" y="659" width="24" height="1"/><rect class="cls-17" x="353" y="661" width="24" height="1"/><rect class="cls-17" x="353" y="663" width="24" height="1"/><ellipse cx="377" cy="681.5" rx="2" ry="2.5"/><ellipse cx="353" cy="681.5" rx="2" ry="2.5"/><rect class="cls-17" x="353" y="679" width="24" height="1"/><rect class="cls-17" x="353" y="681" width="24" height="1"/><rect class="cls-17" x="353" y="683" width="24" height="1"/><ellipse cx="377" cy="701.5" rx="2" ry="2.5"/><ellipse cx="353" cy="701.5" rx="2" ry="2.5"/><rect class="cls-17" x="353" y="699" width="24" height="1"/><rect class="cls-17" x="353" y="701" width="24" height="1"/><rect class="cls-17" x="353" y="703" width="24" height="1"/><ellipse cx="377" cy="721.5" rx="2" ry="2.5"/><ellipse cx="353" cy="721.5" rx="2" ry="2.5"/><rect class="cls-17" x="353" y="719" width="24" height="1"/><rect class="cls-17" x="353" y="721" width="24" height="1"/><rect class="cls-17" x="353" y="723" width="24" height="1"/><ellipse cx="377" cy="741.5" rx="2" ry="2.5"/><ellipse cx="353" cy="741.5" rx="2" ry="2.5"/><rect class="cls-17" x="353" y="739" width="24" height="1"/><rect class="cls-17" x="353" y="741" width="24" height="1"/><rect class="cls-17" x="353" y="743" width="24" height="1"/><ellipse cx="377" cy="761.5" rx="2" ry="2.5"/><ellipse cx="353" cy="761.5" rx="2" ry="2.5"/><rect class="cls-17" x="353" y="759" width="24" height="1"/><rect class="cls-17" x="353" y="761" width="24" height="1"/><rect class="cls-17" x="353" y="763" width="24" height="1"/><ellipse cx="377" cy="781.5" rx="2" ry="2.5"/><ellipse cx="353" cy="781.5" rx="2" ry="2.5"/><rect class="cls-17" x="353" y="779" width="24" height="1"/><rect class="cls-17" x="353" y="781" width="24" height="1"/><rect class="cls-17" x="353" y="783" width="24" height="1"/><ellipse cx="377" cy="801.5" rx="2" ry="2.5"/><ellipse cx="353" cy="801.5" rx="2" ry="2.5"/><rect class="cls-17" x="353" y="799" width="24" height="1"/><rect class="cls-17" x="353" y="801" width="24" height="1"/><rect class="cls-17" x="353" y="803" width="24" height="1"/><ellipse cx="377" cy="821.5" rx="2" ry="2.5"/><ellipse cx="353" cy="821.5" rx="2" ry="2.5"/><rect class="cls-17" x="353" y="819" width="24" height="1"/><rect class="cls-17" x="353" y="821" width="24" height="1"/><rect class="cls-17" x="353" y="823" width="24" height="1"/><ellipse cx="377" cy="841.5" rx="2" ry="2.5"/><ellipse cx="353" cy="841.5" rx="2" ry="2.5"/><rect class="cls-17" x="353" y="839" width="24" height="1"/><rect class="cls-17" x="353" y="841" width="24" height="1"/><rect class="cls-17" x="353" y="843" width="24" height="1"/><ellipse cx="377" cy="861.5" rx="2" ry="2.5"/><ellipse cx="353" cy="861.5" rx="2" ry="2.5"/><rect class="cls-17" x="353" y="859" width="24" height="1"/><rect class="cls-17" x="353" y="861" width="24" height="1"/><rect class="cls-17" x="353" y="863" width="24" height="1"/><ellipse cx="377" cy="881.5" rx="2" ry="2.5"/><ellipse cx="353" cy="881.5" rx="2" ry="2.5"/><rect class="cls-17" x="353" y="879" width="24" height="1"/><rect class="cls-17" x="353" y="881" width="24" height="1"/><rect class="cls-17" x="353" y="883" width="24" height="1"/><ellipse cx="377" cy="906.5" rx="2" ry="2.5"/><ellipse cx="353" cy="906.5" rx="2" ry="2.5"/><rect class="cls-17" x="353" y="904" width="24" height="1"/><rect class="cls-17" x="353" y="906" width="24" height="1"/><rect class="cls-17" x="353" y="908" width="24" height="1"/><ellipse cx="377" cy="926.5" rx="2" ry="2.5"/><ellipse cx="353" cy="926.5" rx="2" ry="2.5"/><rect class="cls-17" x="353" y="924" width="24" height="1"/><rect class="cls-17" x="353" y="926" width="24" height="1"/><rect class="cls-17" x="353" y="928" width="24" height="1"/><rect x="151" y="672" width="189" height="1"/><rect x="151" y="688" width="189" height="1"/><rect x="151" y="703" width="189" height="1"/><rect x="151" y="719" width="189" height="1"/><rect x="151" y="735" width="189" height="1"/><rect x="151" y="751" width="189" height="1"/><rect x="151" y="766" width="189" height="1"/><rect x="151" y="782" width="189" height="1"/><rect x="151" y="798" width="189" height="1"/><rect x="151" y="814" width="189" height="1"/><rect x="151" y="829" width="189" height="1"/><rect x="151" y="845" width="189" height="1"/><rect x="151" y="861" width="189" height="1"/><rect x="151" y="876" width="189" height="1"/><rect x="151" y="892" width="189" height="1"/><rect x="395" y="672" width="189" height="1"/><rect x="395" y="688" width="189" height="1"/><rect x="395" y="703" width="189" height="1"/><rect x="395" y="719" width="189" height="1"/><rect x="395" y="735" width="189" height="1"/><rect x="395" y="751" width="189" height="1"/><rect x="395" y="766" width="189" height="1"/><rect x="395" y="782" width="189" height="1"/><rect x="395" y="798" width="189" height="1"/><rect x="395" y="814" width="189" height="1"/><rect x="395" y="829" width="189" height="1"/><rect x="395" y="845" width="189" height="1"/><rect x="395" y="861" width="189" height="1"/><rect x="395" y="876" width="189" height="1"/><rect x="395" y="892" width="189" height="1"/><rect class="cls-18" x="173.8" y="781.81" width="11" height="149.69" transform="translate(-371.9 176.82) rotate(-27.21)"/><rect x="207.94" y="922.54" width="11" height="1" transform="translate(-398.49 199.78) rotate(-27.21)"/><rect class="cls-19" x="210" y="923.05" width="11" height="8" transform="translate(-400.09 201.16) rotate(-27.21)"/><polygon class="cls-20" points="140.18 792.61 139.68 779.6 149.96 787.58 140.18 792.61"/><polygon points="139.76 781.85 141.46 780.98 139.68 779.6 139.76 781.85"/><rect class="cls-21" x="1507.14" y="563.26" width="179.65" height="281.55" transform="translate(195.62 -336.26) rotate(12.8)"/><path class="cls-22" d="M1529.54,539.79,1697.87,579a3.52,3.52,0,0,1,2.63,4.23l-58.1,249.28a3.52,3.52,0,0,1-4.23,2.63L1472.4,796.52a3.51,3.51,0,0,1-2.63-4.18l55.54-249.89A3.52,3.52,0,0,1,1529.54,539.79Z"/><polygon class="cls-23" points="1666.2 670.03 1678.47 615.3 1685.98 614.03 1687.84 606.37 1683.96 601.17 1660.45 604.74 1658.32 613.5 1661.27 618.33 1663.73 617.78 1653.57 666.97 1657.76 673.02 1666.2 670.03"/><polygon class="cls-24" points="1682.75 601.91 1680.85 609.72 1674.56 610.21 1663.05 666.07 1653.6 666.86 1665.11 611 1659.54 612.74 1661.42 605 1682.75 601.91"/><polygon class="cls-25" points="1615.07 604.96 1624.78 603.32 1610.3 667.75 1600.84 668.41 1615.07 604.96"/><path class="cls-26" d="M1569.66,669.31l9.51-.73,5.8-25.9,2.2-.49-1.41,24.92,9.77-1.71,1-27.14s21.38-26.08,3.17-35.51l-15.71.69Z"/><polygon class="cls-27" points="1653.86 600.25 1657.25 603.18 1641.94 667.38 1636.6 668.09 1633.94 666.38 1632.35 640.18 1625.92 669.5 1618.4 670.68 1614.77 668.72 1628.14 604.02 1636.63 603.09 1639.05 605.77 1639.93 626.63 1645.13 602.15 1653.86 600.25"/><polygon class="cls-28" points="1653.37 602.19 1647.06 602.65 1638.41 640.69 1635.17 604.78 1629.83 605.49 1616.23 667.03 1622.54 666.57 1631.45 623.44 1635.4 664.69 1638.55 664.46 1653.37 602.19"/><path class="cls-29" d="M1549.74,666.85l5.39-22s14.25.51,19.36-20.35-3.85-22-3.85-22-2.42-2.7-16.48.17L1541,668.92Z"/><path class="cls-30" d="M1557.28,636.07l5.11-25.07s8.72-2.07,5.32,11.83S1557.28,636.07,1557.28,636.07Z"/><path class="cls-22" d="M1591.4,611.64l-6,21.74s7.63-.45,10.26-10.36.75-10.61.75-10.61S1594.93,610.76,1591.4,611.64Z"/><path class="cls-31" d="M1543.14,610.79l3.55-8.41s-11.88-10-22.29,7c0,0-6,11.93,3.31,30.6s-4.94,16.3-4.94,16.3-1.23.73-3.55-2.9l-4.32,9.25s12.11,7,19.9-3.49,2.39-19,2.39-19-9.94-25-2.07-31.33C1535.12,608.88,1538.82,606.67,1543.14,610.79Z"/><path d="M152.37,655.16c.23,0,1.75-.07,4.56-.07,1.6,0,2.48,0,2.64,0a.77.77,0,0,1,.32.14.33.33,0,0,1,.14.27.35.35,0,0,1-.06.19l-.11.18-1.33.05-1.33,0,0,.41v.08a26.47,26.47,0,0,0,.88,3.78,15,15,0,0,1,.51,3.07c0,.11,0,.27,0,.49a2.84,2.84,0,0,1-.52,2,2.74,2.74,0,0,1-1.89.62h-.5a1.62,1.62,0,0,1-.7-.16,2.32,2.32,0,0,1-1.05-1,3.84,3.84,0,0,1-.24-.81,3.71,3.71,0,0,1-.12-.89,1.43,1.43,0,0,1,0-.36.42.42,0,0,1,.16-.17.31.31,0,0,1,.38,0,.47.47,0,0,1,.24.35c.07.38.13.64.17.79a1.82,1.82,0,0,0,.78,1.35,1.46,1.46,0,0,0,.62.11,3.38,3.38,0,0,0,1-.15c.33-.1.53-.21.6-.34a2.92,2.92,0,0,0,.18-1.23c0-.14,0-.4,0-.77a11.56,11.56,0,0,0-.22-1.58c-.1-.52-.33-1.4-.67-2.65a11.67,11.67,0,0,1-.48-2.37v-.53l-2.06,0H153a2,2,0,0,1-1-.13.33.33,0,0,1,0-.53A.76.76,0,0,1,152.37,655.16Z"/><path d="M163.86,657.63a2.31,2.31,0,0,1,1-.22,1.56,1.56,0,0,1,1,.28,5.18,5.18,0,0,1,.94,1.23,5.42,5.42,0,0,1,.36.68,3.05,3.05,0,0,1,.08.64s0,.13,0,.21,0,.14,0,.18a.42.42,0,0,1-.35.46,13.13,13.13,0,0,1-1.85.09h-2.62l0,.72a4.61,4.61,0,0,0,.58,2,2.42,2.42,0,0,0,.94,1.06,3.28,3.28,0,0,0,1.51.33h.3a2.45,2.45,0,0,0,1-.23,2.12,2.12,0,0,1,.65-.22.34.34,0,0,1,.28.13.49.49,0,0,1,.1.32.41.41,0,0,1-.12.3,2.66,2.66,0,0,1-.69.34,4.43,4.43,0,0,1-.85.25l-.33,0a5.86,5.86,0,0,1-2-.28,3.43,3.43,0,0,1-1.69-1.81,7.32,7.32,0,0,1-.48-1.19,9,9,0,0,1-.11-1.69,4.44,4.44,0,0,1,.09-1.17,4.73,4.73,0,0,1,.93-1.31A5.27,5.27,0,0,1,163.86,657.63Zm1.59.9a.71.71,0,0,0-.25-.19.9.9,0,0,0-.34-.05,2,2,0,0,0-1.19.59,4.74,4.74,0,0,0-.65.72,2.72,2.72,0,0,0-.43.63,7.53,7.53,0,0,0,1.89.09h1.89v-.16a2.64,2.64,0,0,0-.35-.78A5.23,5.23,0,0,0,165.45,658.53Z"/><path d="M175.46,655.66a.41.41,0,0,1,.3-.12.37.37,0,0,1,.32.15.88.88,0,0,1,.12.53,11.26,11.26,0,0,0,.51,2c.35,1.12.61,2,.77,2.72l.27,1v2a17.46,17.46,0,0,1-.08,2.17,1.38,1.38,0,0,1-.46.8l-.29.26h-4.63l-.15-.18a.58.58,0,0,1-.14-.38.44.44,0,0,1,.11-.31.36.36,0,0,1,.28-.12.56.56,0,0,1,.4.19,1.43,1.43,0,0,0,1,.3l.72,0a4.7,4.7,0,0,0,2.11-.39c.22-.18.32-.73.32-1.64,0-.17,0-.52,0-1.06,0-.72-.07-1.25-.11-1.58a10.83,10.83,0,0,0-.26-1.21l-.07-.27-.38.38a4,4,0,0,1-1.6,1,5.14,5.14,0,0,1-1.44.14,4.93,4.93,0,0,1-1.18-.1,4.2,4.2,0,0,1-1.42-.68,2.87,2.87,0,0,1-.94-1,1.53,1.53,0,0,1-.14-.66c0-.16,0-.31,0-.42a3.62,3.62,0,0,1,.25-1.23,3.26,3.26,0,0,1,.8-1.06,5.18,5.18,0,0,1,1.36-.76,2.83,2.83,0,0,1,1-.19h.27a3.35,3.35,0,0,1,1.87.47c.18.13.29.18.33.14a1.41,1.41,0,0,0,0-.45A.77.77,0,0,1,175.46,655.66Zm-1.25,1.47a2.74,2.74,0,0,0-1.12-.25,3.26,3.26,0,0,0-1.46.39,2.67,2.67,0,0,0-1,.83,2.48,2.48,0,0,0-.36,1.23l0,.59.31.33a2.66,2.66,0,0,0,.92.66l.62.31h1a8.63,8.63,0,0,0,.93,0,1.48,1.48,0,0,0,.5-.17,3.28,3.28,0,0,0,.72-.46,5.61,5.61,0,0,0,.57-.64,1.39,1.39,0,0,0,.31-.51s-.07-.25-.2-.68a2.39,2.39,0,0,0-.19-.5.31.31,0,0,0-.19-.17,1.83,1.83,0,0,1-.53-.4A3.07,3.07,0,0,0,174.21,657.13Z"/><path d="M187.47,655.94a.37.37,0,0,1,.29-.11.57.57,0,0,1,.32.09.29.29,0,0,1,.13.23c0,.09-.25.84-.74,2.27s-.84,2.42-1.07,3q-.43,1.05-.9,2.1a5.43,5.43,0,0,1-.57,1.12.46.46,0,0,1-.33,0,.55.55,0,0,1-.25-.09,1.71,1.71,0,0,1-.22-.37,11.57,11.57,0,0,1-.79-1.83,16.08,16.08,0,0,1-.38-2.17,19.89,19.89,0,0,1-.18-2.23,1.06,1.06,0,0,1,0-.38.42.42,0,0,1,.4-.22h.1c.24.06.35.41.35,1a16.79,16.79,0,0,0,.37,2.86q.38,1.89.57,1.89a5.84,5.84,0,0,0,.73-1.55c.42-1,.83-2.14,1.24-3.35.35-1,.56-1.67.65-1.89A1.22,1.22,0,0,1,187.47,655.94Z"/><path d="M189.86,655.26a.41.41,0,0,1,.35-.16.55.55,0,0,1,.52.52.49.49,0,0,1-.14.36.4.4,0,0,1-.31.13.54.54,0,0,1-.39-.18.42.42,0,0,1,0-.67Zm0,3.37a.33.33,0,0,1,.25-.13.43.43,0,0,1,.34.2,1.05,1.05,0,0,1,.13.6c0,.31,0,1.3,0,3s0,2.6,0,2.94a1.33,1.33,0,0,1-.11.62.44.44,0,0,1-.34.16h-.05c-.17,0-.27-.13-.31-.41s0-1.15,0-2.64v-.67c0-1.58,0-2.56,0-2.95A1.66,1.66,0,0,1,189.83,658.63Z"/><path d="M192.28,656a.43.43,0,0,1,.32-.14.34.34,0,0,1,.28.11c.07.05.11.34.12.86s0,2.11,0,4.77v1c0,2.25,0,3.6,0,4.05s-.12.67-.27.67h-.2q-.26,0-.3-.66c0-.44-.05-1.8-.05-4.1v-1c0-2.68,0-4.26,0-4.75A2,2,0,0,1,192.28,656Z"/><path d="M204.07,655.66a.43.43,0,0,1,.31-.12.38.38,0,0,1,.32.15,1,1,0,0,1,.11.53,10.79,10.79,0,0,0,.52,2c.34,1.12.6,2,.77,2.72l.27,1v2a17.46,17.46,0,0,1-.08,2.17,1.39,1.39,0,0,1-.47.8l-.28.26h-4.63l-.16-.18a.64.64,0,0,1-.14-.38.49.49,0,0,1,.11-.31.38.38,0,0,1,.28-.12.58.58,0,0,1,.41.19,1.42,1.42,0,0,0,1,.3l.71,0a4.76,4.76,0,0,0,2.12-.39c.21-.18.32-.73.32-1.64,0-.17,0-.52,0-1.06,0-.72-.08-1.25-.12-1.58a9,9,0,0,0-.26-1.21l-.07-.27-.38.38a4,4,0,0,1-1.59,1,5.14,5.14,0,0,1-1.44.14,4.82,4.82,0,0,1-1.18-.1,4.25,4.25,0,0,1-1.43-.68,3,3,0,0,1-.94-1,1.53,1.53,0,0,1-.14-.66c0-.16,0-.31,0-.42a3.4,3.4,0,0,1,.25-1.23,3.13,3.13,0,0,1,.8-1.06,5,5,0,0,1,1.36-.76,2.75,2.75,0,0,1,1-.19h.26a3.39,3.39,0,0,1,1.88.47c.18.13.28.18.32.14a1.14,1.14,0,0,0,0-.45A.83.83,0,0,1,204.07,655.66Zm-1.25,1.47a2.71,2.71,0,0,0-1.12-.25,3.22,3.22,0,0,0-1.45.39,2.52,2.52,0,0,0-1,.83,2.38,2.38,0,0,0-.36,1.23l0,.59.31.33a2.57,2.57,0,0,0,.92.66l.62.31h1a8.9,8.9,0,0,0,.93,0,1.55,1.55,0,0,0,.5-.17,3.21,3.21,0,0,0,.71-.46,4.19,4.19,0,0,0,.57-.64,1.25,1.25,0,0,0,.31-.51s-.06-.25-.19-.68a3.15,3.15,0,0,0-.19-.5.34.34,0,0,0-.19-.17,1.71,1.71,0,0,1-.53-.4A3.3,3.3,0,0,0,202.82,657.13Z"/><path d="M210.15,657.63a2.27,2.27,0,0,1,1-.22,1.61,1.61,0,0,1,1,.28,5.51,5.51,0,0,1,.93,1.23,5.42,5.42,0,0,1,.36.68,2.88,2.88,0,0,1,.09.64v.21a1.36,1.36,0,0,1,0,.18.42.42,0,0,1-.34.46,13.45,13.45,0,0,1-1.86.09H208.7l.05.72a4.46,4.46,0,0,0,.57,2,2.42,2.42,0,0,0,.94,1.06,3.32,3.32,0,0,0,1.51.33h.31a2.45,2.45,0,0,0,1-.23,2.06,2.06,0,0,1,.66-.22.32.32,0,0,1,.27.13.49.49,0,0,1,.1.32.41.41,0,0,1-.12.3,2.49,2.49,0,0,1-.69.34,4.24,4.24,0,0,1-.85.25l-.32,0a5.78,5.78,0,0,1-2-.28,3.4,3.4,0,0,1-1.7-1.81,6.33,6.33,0,0,1-.47-1.19,8,8,0,0,1-.12-1.69A4.44,4.44,0,0,1,208,660a4.73,4.73,0,0,1,.93-1.31A5.09,5.09,0,0,1,210.15,657.63Zm1.58.9a.71.71,0,0,0-.25-.19.9.9,0,0,0-.34-.05,2,2,0,0,0-1.19.59,4.33,4.33,0,0,0-.64.72,3,3,0,0,0-.44.63,7.53,7.53,0,0,0,1.89.09h1.89v-.16a2.64,2.64,0,0,0-.35-.78A4.65,4.65,0,0,0,211.73,658.53Z"/><path d="M220.32,656.25c.12,0,.44,0,.94-.07h.17a.71.71,0,0,1,.5.13.43.43,0,0,1,.16.32.32.32,0,0,1-.2.31,2.35,2.35,0,0,1-.74.12,7,7,0,0,0-2.42.6A4.73,4.73,0,0,0,217,659a1.6,1.6,0,0,0-.32.64c-.06.26-.09.42-.11.49a25.82,25.82,0,0,0-.07,2.92c0,1.2,0,2,0,2.26a1.14,1.14,0,0,1-.11.56.34.34,0,0,1-.29.11.4.4,0,0,1-.32-.11q-.1-.08-.12-.69c0-.41,0-1.65,0-3.74s0-3.17,0-3.65a2.08,2.08,0,0,1,.11-.82.35.35,0,0,1,.26-.13.42.42,0,0,1,.3.14,1.39,1.39,0,0,1,.18.67l0,.52.33-.29a6.29,6.29,0,0,1,1.61-1A6.82,6.82,0,0,1,220.32,656.25Z"/><path d="M223.77,655.72a.4.4,0,0,1,.25-.13c.06,0,.13,0,.24.13a.42.42,0,0,1,.13.3c0,.13,0,.49,0,1.07a5.42,5.42,0,0,0,.06,1.27h0c.05,0,.17-.14.34-.43a2.75,2.75,0,0,1,.89-.93,2.93,2.93,0,0,1,1.24-.3l.42,0a1.18,1.18,0,0,1,.59.17,2.09,2.09,0,0,1,.57.53,2.54,2.54,0,0,1,.44.72,14.37,14.37,0,0,1,.66,4,5.7,5.7,0,0,0,.21,1.76,1.67,1.67,0,0,1,.12.8,1.31,1.31,0,0,1-.12.74.38.38,0,0,1-.27.13.42.42,0,0,1-.34-.21.9.9,0,0,1-.15-.53,1.37,1.37,0,0,0-.1-.58,8.39,8.39,0,0,1-.22-1.93,19.85,19.85,0,0,0-.35-3,3.19,3.19,0,0,0-.66-1.49l-.29-.33-.49.05a1.6,1.6,0,0,0-.82.23,2.35,2.35,0,0,0-.64.72,7.85,7.85,0,0,0-.87,1.65,13.09,13.09,0,0,0-.18,2.55,16.29,16.29,0,0,1-.12,2.22.41.41,0,0,1-.27.2.34.34,0,0,1-.34-.08l-.17-.14,0-4.54c0-2.35,0-3.7,0-4S223.7,655.77,223.77,655.72Z"/><path d="M233.78,657.63a2.27,2.27,0,0,1,1-.22,1.61,1.61,0,0,1,1,.28,5,5,0,0,1,.93,1.23,4.29,4.29,0,0,1,.36.68,2.88,2.88,0,0,1,.09.64v.21a1.36,1.36,0,0,1,0,.18.42.42,0,0,1-.34.46,13.45,13.45,0,0,1-1.86.09h-2.62l0,.72a4.59,4.59,0,0,0,.57,2,2.42,2.42,0,0,0,.94,1.06,3.32,3.32,0,0,0,1.51.33h.31a2.41,2.41,0,0,0,1-.23,2.14,2.14,0,0,1,.66-.22.32.32,0,0,1,.27.13.5.5,0,0,1,.11.32.42.42,0,0,1-.13.3,2.34,2.34,0,0,1-.69.34,4.24,4.24,0,0,1-.85.25l-.32,0a5.78,5.78,0,0,1-2-.28,3.4,3.4,0,0,1-1.7-1.81,6.33,6.33,0,0,1-.47-1.19,8.19,8.19,0,0,1-.11-1.69,4.62,4.62,0,0,1,.08-1.17,4.73,4.73,0,0,1,.93-1.31A5.09,5.09,0,0,1,233.78,657.63Zm1.58.9a.63.63,0,0,0-.25-.19.9.9,0,0,0-.34-.05,2,2,0,0,0-1.19.59,4.85,4.85,0,0,0-.64.72,3,3,0,0,0-.44.63,7.53,7.53,0,0,0,1.89.09h1.89v-.16a2.37,2.37,0,0,0-.35-.78A4.65,4.65,0,0,0,235.36,658.53Z"/><path d="M242.88,655.26a.41.41,0,0,1,.35-.16.5.5,0,0,1,.35.16.51.51,0,0,1,.17.36.49.49,0,0,1-.14.36.42.42,0,0,1-.31.13.54.54,0,0,1-.39-.18.5.5,0,0,1-.19-.35A.49.49,0,0,1,242.88,655.26Zm0,3.37a.31.31,0,0,1,.25-.13.46.46,0,0,1,.34.2,1.14,1.14,0,0,1,.13.6c0,.31,0,1.3,0,3s0,2.6,0,2.94a1.18,1.18,0,0,1-.12.62.41.41,0,0,1-.33.16h-.06c-.16,0-.27-.13-.3-.41s-.05-1.15-.05-2.64v-.67c0-1.58,0-2.56,0-2.95A1.59,1.59,0,0,1,242.85,658.63Z"/><path d="M253.11,658.59s.4,0,1,0h.73c.73,0,1.18,0,1.36,0a.62.62,0,0,1,.39.12.38.38,0,0,1,.14.29.4.4,0,0,1-.11.27.63.63,0,0,1-.35.1c-.18,0-.62,0-1.32,0a12.11,12.11,0,0,0-1.72.07.67.67,0,0,0-.53.31,1.33,1.33,0,0,0-.21.74.41.41,0,0,0,.05.21,6.9,6.9,0,0,0,2.41.84,10.15,10.15,0,0,1,2.07.7.84.84,0,0,1,.52.75.67.67,0,0,1-.28.51,4.69,4.69,0,0,1-1.82.83,12.42,12.42,0,0,1-2.69.46c-.22,0-.51,0-.88,0a4.94,4.94,0,0,1-1.62-.24,6.1,6.1,0,0,1-.85-.36,3.7,3.7,0,0,1-.61-.35.38.38,0,0,1-.13-.3.49.49,0,0,1,.11-.31.32.32,0,0,1,.27-.13,1.31,1.31,0,0,1,.56.22,5.93,5.93,0,0,0,1.15.48,4.23,4.23,0,0,0,1.12.14c.23,0,.51,0,.84,0a12.22,12.22,0,0,0,2.22-.37,4,4,0,0,0,1.45-.54.09.09,0,0,0,0-.07,6.07,6.07,0,0,0-1.58-.5,13.38,13.38,0,0,1-2.53-.86,1.5,1.5,0,0,1-.54-.39.89.89,0,0,1-.15-.56.34.34,0,0,1,0-.09v-.12a2.18,2.18,0,0,1,.65-1.51,1.55,1.55,0,0,1,.34-.24A1.41,1.41,0,0,1,253.11,658.59Z"/><path d="M259.31,655.42a.37.37,0,0,1,.27-.11.45.45,0,0,1,.32.14.87.87,0,0,1,.12.53c0,.29,0,1.2,0,2.72a29.89,29.89,0,0,0,.06,3.09s.11-.06.23-.18.47-.43,1.16-1,1.18-.94,1.49-1.16a2.57,2.57,0,0,1,.55-.34.74.74,0,0,1,.18,0,.45.45,0,0,1,.31.12.38.38,0,0,1,.12.29.76.76,0,0,1-.05.19,1.48,1.48,0,0,1-.51.45c-.27.18-.66.46-1.19.85s-.78.61-.78.68a7.73,7.73,0,0,0,.95,1.68,17.19,17.19,0,0,0,1.43,2,.71.71,0,0,1,.24.42.51.51,0,0,1-.12.27.3.3,0,0,1-.26.16q-.25,0-.63-.42a33.19,33.19,0,0,1-2.18-3.19c-.09-.15-.15-.22-.19-.22a1.88,1.88,0,0,0-.42.39l-.36.38-.06,1.23c0,1.08-.08,1.77-.11,2.07a1.08,1.08,0,0,1-.15.56.38.38,0,0,1-.28.13.44.44,0,0,1-.3-.14.45.45,0,0,1-.12-.32,1.63,1.63,0,0,1,0-.24c0-.17.05-2,.08-5.64A47.56,47.56,0,0,1,259.31,655.42Z"/><path d="M267.25,659.51a5,5,0,0,1,1.13-.1,2.18,2.18,0,0,1,.83.09.42.42,0,0,1,.21.24.21.21,0,0,0,.21.15h.31a4.79,4.79,0,0,1,1.8.51,7,7,0,0,1,1.87,1.12,1.9,1.9,0,0,1,.71,1.45,1.58,1.58,0,0,1-.14.65,2.38,2.38,0,0,1-.94.93,5,5,0,0,1-1.54.63,5.54,5.54,0,0,1-1.26.1,7.12,7.12,0,0,1-1.85-.17,4.24,4.24,0,0,1-2-1.12,2.72,2.72,0,0,1-.68-.87,3.14,3.14,0,0,1-.18-1.14v-.31a2.4,2.4,0,0,1,.32-1.41,1.84,1.84,0,0,1,.5-.42A2.67,2.67,0,0,1,267.25,659.51Zm2.17.81a.09.09,0,0,0,0-.07s0,0-.05,0h-.16l-.36,0-.45,0a3,3,0,0,0-1.23.24.8.8,0,0,0-.42.41,2.6,2.6,0,0,0-.1.9v.1a2,2,0,0,0,.13.8,2.13,2.13,0,0,0,.47.63,4.38,4.38,0,0,0,2.89,1h.46a4,4,0,0,0,1.83-.39c.7-.36,1.05-.73,1.05-1.09a.83.83,0,0,0-.17-.49,2.73,2.73,0,0,0-.61-.5,7,7,0,0,0-.9-.56,6.22,6.22,0,0,0-1-.41,4.16,4.16,0,0,0-.84-.23.56.56,0,0,1-.32-.13C269.48,660.48,269.42,660.4,269.42,660.32Z"/><path d="M275.92,656a.41.41,0,0,1,.32-.14.37.37,0,0,1,.28.11,2,2,0,0,1,.11.86c0,.52,0,2.11,0,4.77v1c0,2.25,0,3.6-.05,4.05s-.12.67-.27.67h-.19q-.25,0-.3-.66c0-.44-.05-1.8-.05-4.1v-1c0-2.68,0-4.26,0-4.75A1.68,1.68,0,0,1,275.92,656Z"/><path d="M280.38,657.63a2.28,2.28,0,0,1,1-.22,1.58,1.58,0,0,1,1,.28,5,5,0,0,1,.93,1.23,4.7,4.7,0,0,1,.37.68,3.05,3.05,0,0,1,.08.64,1.7,1.7,0,0,0,0,.21c0,.08,0,.14,0,.18a.42.42,0,0,1-.35.46,13.25,13.25,0,0,1-1.85.09h-2.62l0,.72a4.61,4.61,0,0,0,.58,2,2.47,2.47,0,0,0,.93,1.06,3.36,3.36,0,0,0,1.52.33h.3a2.37,2.37,0,0,0,1-.23,2.23,2.23,0,0,1,.66-.22.32.32,0,0,1,.27.13.5.5,0,0,1,.11.32.38.38,0,0,1-.13.3,2.38,2.38,0,0,1-.68.34,4.29,4.29,0,0,1-.86.25l-.32,0a5.86,5.86,0,0,1-2-.28,3.39,3.39,0,0,1-1.69-1.81,7.32,7.32,0,0,1-.48-1.19,9,9,0,0,1-.11-1.69,5.18,5.18,0,0,1,.08-1.17,4.82,4.82,0,0,1,.94-1.31A5.08,5.08,0,0,1,280.38,657.63Zm1.58.9a.61.61,0,0,0-.24-.19.94.94,0,0,0-.34-.05,1.92,1.92,0,0,0-1.19.59,4.74,4.74,0,0,0-.65.72,2.72,2.72,0,0,0-.43.63,7.53,7.53,0,0,0,1.89.09h1.89v-.16a2.64,2.64,0,0,0-.35-.78A5.13,5.13,0,0,0,282,658.53Z"/><path d="M286.26,664.4a1.54,1.54,0,0,1,.38-.06,1.09,1.09,0,0,1,.74.21.7.7,0,0,1,.17.51.89.89,0,0,1-.35.84,1.2,1.2,0,0,1-.53.14.72.72,0,0,1-.73-.48,1.39,1.39,0,0,1-.11-.52A.59.59,0,0,1,286.26,664.4Z"/><path d="M289.44,664.4a1.48,1.48,0,0,1,.38-.06,1.11,1.11,0,0,1,.74.21.7.7,0,0,1,.17.51.89.89,0,0,1-.35.84,1.21,1.21,0,0,1-.54.14.72.72,0,0,1-.72-.48A1.42,1.42,0,0,1,289,665,.59.59,0,0,1,289.44,664.4Z"/><path d="M292.62,664.4a1.48,1.48,0,0,1,.38-.06,1.11,1.11,0,0,1,.74.21.69.69,0,0,1,.16.51c0,.43-.11.71-.35.84a1.13,1.13,0,0,1-.53.14.74.74,0,0,1-.73-.48,1.62,1.62,0,0,1-.11-.52A.59.59,0,0,1,292.62,664.4Z"/><path d="M295.79,664.4a1.54,1.54,0,0,1,.38-.06,1.07,1.07,0,0,1,.74.21.66.66,0,0,1,.17.51c0,.43-.11.71-.35.84a1.17,1.17,0,0,1-.53.14.73.73,0,0,1-.73-.48,1.62,1.62,0,0,1-.11-.52A.59.59,0,0,1,295.79,664.4Z"/><image width="749" height="878" transform="matrix(0.13, 0.1, -0.13, 0.16, 1717.96, 291)" xlink:href="../../../../Portr%C3%A6t.jpg"/></svg>