<svg id="Social_Buttons_Base_Button_Instagram" data-name="Social Buttons / Base Button / Instagram" xmlns="http://www.w3.org/2000/svg" width="30.208" height="28.358" viewBox="0 0 30.208 28.358">
  <path id="Instagram" d="M7.307,28.079c-1.694-.016-3.591-.134-4.99-1.2C1.087,25.945.847,24.469.726,23.01.4,19.022.415,14.975.263,10.974.148,7.951-.951,2.84,2.4,1.105,4.061.249,6.159.378,7.97.3q3.449-.149,6.9-.226C17.25.023,19.632-.013,22.011,0a13.756,13.756,0,0,1,5.672.834,4.145,4.145,0,0,1,2.346,3.817c.16,2.356.086,4.75.1,7.11q.017,3.473-.008,6.947c-.014,2.046.339,4.573-.259,6.547-.8,2.63-4.174,2.657-6.44,2.8-2.865.184-5.776.3-8.684.3C12.246,28.358,9.759,28.274,7.307,28.079ZM22.4,26.466c1-.049,2-.1,2.993-.226,1.512-.187,2.88-.479,3.007-2.278.272-3.852.094-7.8.077-11.661-.008-2.14-.025-4.277-.063-6.413a5.127,5.127,0,0,0-.449-2.79A3.242,3.242,0,0,0,25.976,2a26.137,26.137,0,0,0-6.325-.336q-2.656.021-5.312.08-3.185.07-6.369.209c-1.544.066-3.536-.143-4.915.669C1.346,3.633,1.739,6.191,1.8,7.851q.087,2.442.182,4.876.178,4.631.344,9.263c.039,1.087-.013,2.6.807,3.431,1,1.013,2.866.991,4.174,1a.938.938,0,0,1,.15.012A118.536,118.536,0,0,0,22.4,26.466ZM18.09,23.1c-.391-.01-.766-.022-1.112-.018-3.822.036-9,.1-10.562-4.188-.84-2.3-.749-5.028-.7-7.434.041-2,.151-4.177,2.133-5.223,1.883-.995,4.411-.816,6.476-.926,2.332-.123,4.658-.135,6.993-.092h.059c.028,0,.055,0,.082,0,1.843.129,2.667,1.513,2.909,3.242a39.692,39.692,0,0,1-.045,7.8c-.116,1.878.135,4.615-1.509,5.945a5.817,5.817,0,0,1-3.671.9C18.788,23.124,18.433,23.114,18.09,23.1ZM14.73,6.948c-1.027.05-2.054.113-3.081.182-1.143.075-2.69.053-3.552.95-.906.942-.719,2.691-.732,3.891-.014,1.181.016,2.365.1,3.544.185,2.542.887,4.764,3.6,5.471a23.726,23.726,0,0,0,6.234.446c.958-.016,1.927-.011,2.886-.071,1.72-.111,2.172-1.016,2.321-2.611.226-2.409.347-4.86.352-7.28,0-1.221.331-4.452-1.443-4.59h-.036q-1.265-.025-2.528-.027C17.481,6.853,16.106,6.88,14.73,6.948ZM10.89,15.407a4.253,4.253,0,0,1,3.585-5.317c2.3-.4,4.882.694,5.284,3.189q0,.026.007.052a.933.933,0,0,1,.023.17c.114,2.522-1.241,4.9-3.9,5.271a4.624,4.624,0,0,1-.631.043A4.469,4.469,0,0,1,10.89,15.407Zm1.661-.19a2.834,2.834,0,0,0,3.326,1.889c1.708-.358,2.313-1.948,2.264-3.529a2.476,2.476,0,0,0-2.6-1.928C13.752,11.65,11.846,13,12.55,15.217Zm6.3-5.46A1.013,1.013,0,0,1,19.726,8.2a1.111,1.111,0,0,1,.977.639,1.1,1.1,0,0,1,.212.411.965.965,0,0,1-.647,1.145.9.9,0,0,1-.292.048A1.412,1.412,0,0,1,18.85,9.757Z"/>
</svg>
